<?xml version="1.0" standalone="no"?>
<!DOCTYPE svg PUBLIC "-//W3C//DTD SVG 20010904//EN"
 "http://www.w3.org/TR/2001/REC-SVG-20010904/DTD/svg10.dtd">
<svg version="1.0" xmlns="http://www.w3.org/2000/svg"
 width="4896.000000pt" height="3264.000000pt" viewBox="0 0 4896.000000 3264.000000"
 preserveAspectRatio="xMidYMid meet">

<g transform="translate(0.000000,3264.000000) scale(0.100000,-0.100000)"
fill="#000000" stroke="none">
<path d="M0 16320 l0 -16320 24480 0 24480 0 0 16320 0 16320 -24480 0 -24480
0 0 -16320z m37040 7770 c0 -5 9 -19 20 -30 11 -11 20 -25 20 -31 0 -16 -22
-6 -34 17 -6 10 -17 23 -23 27 -18 11 -16 27 2 27 8 0 15 -4 15 -10z m-210
-40 c0 -5 -2 -10 -4 -10 -3 0 -8 5 -11 10 -3 6 -1 10 4 10 6 0 11 -4 11 -10z
m-60 -100 c0 -22 -26 8 -35 40 l-6 25 20 -25 c11 -14 21 -32 21 -40z m-488
-70 c15 -17 25 -37 22 -45 -3 -8 6 -21 20 -30 14 -10 26 -24 26 -32 0 -13 -3
-13 -15 -3 -8 7 -15 9 -15 5 0 -4 -9 4 -21 19 -11 14 -18 30 -14 36 3 5 0 7
-7 5 -16 -6 -52 50 -43 65 10 16 19 12 47 -20z m-706 -211 c24 -14 34 -28 34
-45 0 -13 5 -24 10 -24 12 0 13 -27 2 -34 -5 -3 -27 12 -50 33 -29 27 -42 47
-42 65 0 31 3 32 46 5z m-272 -65 c50 -50 73 -86 46 -69 -6 4 -7 -6 -4 -25 5
-23 3 -30 -10 -30 -8 0 -18 -10 -21 -23 -4 -14 -13 -23 -23 -22 -24 2 -84 41
-102 65 -8 11 -18 20 -23 20 -10 0 -5 -41 8 -75 l8 -20 -16 20 -16 20 -6 -20
c-16 -48 -27 -62 -48 -60 -12 1 -27 3 -33 4 -6 0 -22 17 -35 36 -13 19 -31 34
-39 32 -9 -1 -16 7 -18 23 -2 14 -11 31 -20 38 -9 7 -11 12 -4 12 7 0 12 8 12
18 0 14 9 18 43 19 78 2 99 12 145 67 8 11 26 14 57 12 25 -2 49 2 52 8 4 6 8
5 11 -4 3 -8 19 -28 36 -46z m-934 -289 c19 -17 37 -35 38 -40 2 -6 9 -19 15
-30 6 -11 13 -31 14 -45 1 -14 7 -26 13 -28 5 -2 8 -8 5 -12 -3 -5 -16 -5 -29
0 -20 7 -25 5 -30 -13 -3 -12 0 -25 7 -29 7 -4 -9 -8 -35 -8 -58 0 -88 23 -63
49 18 21 20 71 2 71 -21 0 -87 79 -87 104 0 2 12 7 28 9 60 9 87 3 122 -28z
m-696 -131 c3 -8 12 -14 20 -14 9 0 23 -9 33 -19 10 -11 29 -21 43 -23 20 -2
24 -8 22 -30 -1 -14 2 -29 8 -33 5 -3 7 -17 4 -31 -3 -13 -1 -31 6 -39 6 -8 9
-23 5 -34 -4 -13 0 -23 12 -30 15 -9 12 -10 -12 -5 -16 4 -39 14 -49 23 -18
15 -19 15 -13 -1 4 -10 2 -18 -2 -18 -5 0 -11 7 -15 15 -3 8 -15 15 -26 15
-23 0 -80 47 -80 67 0 7 -7 13 -16 13 -11 0 -14 6 -9 20 4 12 2 20 -5 20 -7 0
-10 8 -7 20 3 13 0 20 -9 20 -24 0 -15 29 10 36 13 3 26 13 29 23 5 21 43 25
51 5z m-509 -153 c3 -5 18 -12 33 -16 15 -3 43 -20 62 -37 19 -17 29 -28 23
-24 -17 9 -16 -13 2 -44 19 -33 18 -56 -2 -80 -20 -23 -53 -27 -53 -6 0 13
-78 86 -92 86 -5 0 -8 -5 -8 -12 0 -23 -40 27 -50 63 -15 54 0 85 28 57 9 -9
12 -8 12 5 0 18 34 24 45 8z m-639 -140 c11 -10 30 -22 41 -25 12 -4 24 -13
27 -21 3 -8 11 -15 18 -15 25 0 76 -66 97 -126 23 -67 29 -110 10 -84 -8 12
-10 10 -6 -10 3 -14 8 -34 12 -46 5 -18 -1 -25 -36 -42 -39 -19 -45 -20 -77
-6 -53 22 -79 18 -96 -15 -9 -16 -12 -32 -8 -35 12 -13 -19 -23 -56 -19 -20 2
-66 17 -101 33 -71 34 -79 35 -78 18 3 -84 -18 -78 -103 29 -6 7 -10 17 -10
22 0 6 -6 14 -12 18 -37 24 -84 132 -59 134 42 4 61 1 75 -10 14 -12 16 -10
17 10 2 40 -3 64 -13 70 -6 4 -1 10 11 14 11 3 21 11 21 16 0 5 6 9 14 9 7 0
19 7 27 16 8 10 21 13 36 9 13 -3 23 -1 23 5 0 6 17 18 38 26 20 8 46 19 57
24 11 5 38 11 60 13 22 2 43 4 46 5 3 1 14 -6 25 -17z m297 -11 c20 -21 24
-30 13 -30 -8 0 -18 5 -21 10 -4 6 -11 7 -17 4 -7 -5 -9 -2 -5 8 3 9 0 21 -6
27 -6 6 -7 11 -1 11 5 0 22 -13 37 -30z m190 9 c18 -20 17 -20 -5 -17 -12 2
-24 11 -26 21 -5 23 10 22 31 -4z m-154 -70 c-16 -10 -23 -4 -14 10 3 6 11 8
17 5 6 -4 5 -9 -3 -15z m441 -29 c0 -5 -4 -10 -10 -10 -5 0 -10 5 -10 10 0 6
5 10 10 10 6 0 10 -4 10 -10z m-3660 -779 c0 -4 25 -8 56 -9 56 -2 61 -5 115
-54 16 -16 33 -28 38 -28 4 0 18 -19 29 -42 33 -65 24 -130 -26 -181 -34 -35
-41 -38 -82 -35 -47 4 -110 41 -110 65 0 7 -6 10 -15 7 -8 -4 -13 -10 -10 -14
3 -5 1 -11 -4 -15 -6 -3 -7 -27 -4 -55 l6 -50 -29 1 c-47 3 -107 34 -157 83
-57 55 -70 85 -68 153 2 93 35 139 105 148 18 3 44 10 58 18 27 14 98 20 98 8z
m-640 -181 c0 -5 7 -10 15 -10 8 0 15 5 15 11 0 6 13 1 29 -10 16 -12 36 -21
44 -21 19 0 41 -26 32 -40 -3 -5 1 -10 9 -10 9 0 16 -8 16 -19 0 -11 5 -23 11
-26 14 -9 2 -136 -17 -181 -12 -27 -60 -84 -71 -84 -5 0 -15 -6 -22 -12 -6 -7
-15 -13 -19 -14 -34 -5 -73 -18 -78 -25 -7 -12 -61 -11 -69 0 -3 5 -18 12 -33
16 -16 3 -50 26 -77 50 -27 25 -52 45 -56 45 -4 0 -20 12 -37 26 l-30 27 19
32 c11 18 38 45 59 60 22 16 43 39 46 51 3 13 23 37 43 54 20 16 43 36 52 43
14 12 56 28 81 31 3 1 10 4 14 9 11 10 24 9 24 -3z m-702 -226 c21 -9 44 -20
52 -25 8 -5 24 -13 35 -18 27 -12 69 -51 88 -81 22 -35 33 -126 17 -144 -6 -9
-9 -19 -6 -25 3 -5 -7 -12 -24 -16 -16 -4 -30 -11 -30 -16 0 -5 -6 -9 -14 -9
-7 0 -20 -7 -27 -16 -23 -28 -56 -34 -112 -22 -28 7 -63 11 -77 10 -38 -2
-140 19 -140 30 0 5 -19 8 -42 6 -34 -2 -43 1 -46 14 -4 22 28 67 48 68 13 0
13 2 1 9 -17 11 -9 80 11 93 7 4 9 8 4 8 -5 0 12 20 37 45 26 25 53 45 60 45
7 0 22 8 33 18 18 17 65 39 87 41 5 1 25 -6 45 -15z m-679 -243 c4 -6 14 -9
22 -6 8 3 28 -6 45 -20 16 -14 37 -25 47 -25 9 0 17 -5 17 -12 0 -6 3 -9 6 -5
3 3 28 -22 55 -55 47 -59 48 -62 44 -115 -5 -65 -17 -80 -90 -117 -29 -15 -55
-32 -57 -37 -2 -5 -14 -11 -28 -14 -14 -3 -36 -9 -50 -15 -16 -7 -47 -7 -86
-2 -34 5 -77 7 -95 6 -19 -1 -37 3 -41 9 -6 9 -10 9 -16 0 -8 -13 -18 -12 -80
7 -24 7 -48 22 -53 32 -5 9 -21 29 -34 42 -39 39 -25 114 24 139 27 14 33 23
57 90 28 77 52 97 123 97 33 0 63 5 66 11 9 14 115 6 124 -10z m4931 -21 c0
-6 9 -20 19 -31 17 -18 29 -68 36 -141 1 -10 4 -21 8 -24 10 -11 8 -64 -2 -64
-6 0 -31 27 -56 60 -25 33 -50 60 -54 60 -4 0 -17 17 -29 38 -32 57 -11 103
39 87 13 -4 19 -1 19 9 0 9 5 16 10 16 6 0 10 -5 10 -10z m-5669 -202 c32 -30
36 -38 33 -78 -1 -25 5 -79 12 -120 12 -62 20 -80 46 -102 28 -25 31 -31 22
-55 -6 -18 -18 -29 -32 -31 -15 -2 -22 -9 -18 -17 6 -18 -28 -29 -50 -17 -9 5
-25 7 -34 5 -22 -6 -55 36 -40 51 6 6 6 14 -2 23 -6 7 -8 17 -4 20 4 4 11 1
16 -7 13 -20 12 -3 0 21 -6 10 -21 19 -34 19 -12 0 -33 11 -46 24 -12 14 -34
28 -49 31 -14 3 -40 18 -57 33 -18 15 -44 36 -59 47 -46 34 -41 54 29 125 60
61 81 73 133 75 18 1 35 4 39 7 8 9 55 -18 95 -54z m5235 45 c-3 -7 7 -22 22
-33 18 -15 23 -23 14 -29 -9 -5 -7 -17 8 -46 11 -22 20 -45 20 -51 0 -6 7 -25
15 -40 31 -59 12 -114 -32 -91 -27 15 -86 69 -106 97 -9 12 -20 19 -26 15 -17
-10 -13 -40 8 -67 11 -13 23 -37 26 -51 6 -22 4 -27 -10 -27 -34 0 -95 23 -95
37 0 7 -7 13 -15 13 -9 0 -15 9 -15 25 0 14 -4 25 -10 25 -5 0 -10 -11 -10
-24 0 -21 -6 -26 -43 -31 -62 -10 -116 1 -138 28 -16 19 -18 19 -19 5 0 -10
-4 -18 -10 -18 -10 0 -14 18 -11 55 2 17 0 18 -9 5 -10 -13 -11 -12 -6 3 3 10
6 24 6 30 0 7 12 25 25 40 24 27 25 27 50 11 25 -17 26 -16 38 15 11 31 14 32
54 26 56 -7 75 -15 91 -36 6 -10 26 -20 42 -24 17 -4 30 -11 30 -16 0 -6 4 -7
10 -4 6 4 2 21 -10 45 -25 49 -26 88 -2 97 9 4 20 11 24 17 9 16 90 14 84 -1z
m224 -6 c25 -20 48 -70 50 -107 3 -61 1 -70 -20 -70 -20 0 -60 32 -60 49 0 14
-79 91 -94 91 -8 0 -13 10 -13 25 0 24 2 25 61 25 33 0 68 -6 76 -13z m-683
-231 c44 -14 81 -147 52 -183 -13 -14 -39 -6 -39 12 0 7 -3 15 -7 17 -12 5
-58 78 -77 123 -10 22 -22 48 -27 57 -13 26 31 28 58 1 12 -12 30 -24 40 -27z
m-5869 -72 c19 6 47 -27 58 -68 6 -24 4 -26 -30 -26 -20 0 -36 5 -36 10 0 6
-5 10 -11 10 -5 0 -8 -4 -4 -9 3 -5 1 -12 -4 -15 -5 -4 -13 -1 -16 5 -5 7 -14
4 -26 -9 -16 -18 -22 -19 -49 -9 -35 13 -42 41 -7 33 12 -3 17 -3 10 0 -8 3
-9 11 -4 22 5 9 14 29 21 44 9 19 22 28 44 30 19 2 32 -2 34 -10 2 -7 11 -11
20 -8z m5616 -26 c10 -39 6 -44 -14 -19 -23 27 -25 41 -6 41 7 0 16 -10 20
-22z m-706 -132 c2 -9 9 -16 17 -16 14 0 29 -29 20 -38 -11 -11 -60 14 -70 36
-5 12 -13 22 -17 22 -5 0 -8 4 -8 9 0 17 55 5 58 -13z m-154 -38 c3 -13 6 -40
6 -60 0 -20 5 -40 10 -43 6 -4 8 -10 5 -14 -2 -5 5 -17 16 -27 11 -10 19 -27
17 -38 -1 -12 1 -27 5 -33 5 -8 4 -13 -2 -13 -6 0 -11 4 -11 9 0 5 -13 11 -29
14 -36 8 -101 96 -108 147 -4 31 -1 40 22 58 36 28 61 28 69 0z m-220 -55 c18
-10 31 -53 16 -53 -9 0 1 -69 11 -76 5 -3 9 -13 9 -23 0 -10 6 -31 14 -45 7
-14 11 -37 9 -51 -5 -23 -6 -23 -29 -8 -13 8 -24 18 -24 22 0 4 -27 35 -60 70
-33 35 -60 67 -60 72 0 5 -4 9 -10 9 -5 0 -10 9 -10 20 0 12 -7 20 -17 20 -13
0 -9 8 16 31 28 25 40 30 75 27 22 -2 50 -9 60 -15z m-5067 -89 c28 -16 43
-31 39 -39 -3 -8 0 -15 5 -17 12 -4 50 -109 43 -120 -3 -4 0 -16 5 -26 18 -35
-33 -79 -109 -95 -14 -3 -60 -14 -102 -25 -113 -28 -147 -17 -151 50 -1 21 2
32 10 31 18 -4 36 35 29 62 -8 31 13 75 35 75 13 0 22 15 33 54 13 43 22 56
44 64 44 17 73 13 119 -14z m4770 13 c7 -2 15 -6 19 -9 3 -4 12 -4 19 -2 8 4
16 -6 20 -28 4 -18 22 -47 40 -65 41 -40 75 -163 45 -163 -5 0 -10 -6 -10 -14
0 -16 -47 -10 -70 9 -25 21 -80 44 -80 34 0 -5 -6 -9 -14 -9 -7 0 -19 -6 -26
-14 -20 -25 -63 -24 -87 3 -13 13 -23 27 -23 30 0 3 -11 19 -25 35 -14 16 -25
41 -25 55 1 29 24 65 43 67 7 0 20 2 29 2 10 1 15 8 12 15 -3 8 12 25 33 41
37 26 42 27 100 13z m-3742 -7 c3 -5 -3 -10 -14 -10 -11 0 -23 5 -26 10 -3 6
3 10 14 10 11 0 23 -4 26 -10z m-1405 -40 c0 -5 -6 -10 -14 -10 -8 0 -18 5
-21 10 -3 6 3 10 14 10 12 0 21 -4 21 -10z m1023 -42 c4 -12 2 -27 -4 -34 -7
-8 -7 -14 1 -19 6 -3 8 -11 5 -16 -6 -8 -15 -3 -52 31 -9 8 -19 14 -22 12 -3
-2 -7 1 -9 7 -2 6 3 11 11 11 8 0 20 7 27 15 18 22 37 18 43 -7z m-1719 -219
c20 -12 36 -27 36 -34 0 -8 6 -18 13 -22 39 -24 83 -151 72 -204 -8 -34 -31
-49 -75 -49 -17 0 -41 -5 -52 -11 -26 -14 -119 -39 -171 -46 -46 -6 -63 6 -72
53 -5 29 -2 40 13 55 11 10 22 16 25 13 2 -3 8 16 12 42 4 31 15 54 33 71 15
14 34 48 43 75 13 43 21 53 50 63 19 7 35 13 36 14 1 0 18 -8 37 -20z m-600
-60 c17 14 86 -12 86 -33 0 -7 6 -19 14 -25 7 -6 16 -30 20 -53 10 -61 -15
-80 -108 -84 -83 -3 -132 11 -140 40 -5 18 -8 19 -16 6 -8 -13 -10 -13 -10 2
0 9 13 26 30 38 16 11 27 27 24 34 -3 7 2 16 10 19 9 4 16 13 16 21 0 8 7 22
16 31 12 12 19 13 30 4 10 -8 17 -9 28 0z m147 -291 c76 -26 97 -84 40 -112
-30 -14 -124 -12 -129 3 -2 6 -12 11 -23 11 -10 0 -19 1 -19 3 2 25 33 82 51
92 31 17 39 17 80 3z m-18443 -662 c3 -12 -1 -17 -10 -14 -7 3 -15 13 -16 22
-3 12 1 17 10 14 7 -3 15 -13 16 -22z m15364 -390 c10 6 68 -43 68 -58 0 -4
17 -36 38 -70 21 -35 46 -82 56 -105 10 -23 23 -40 27 -37 5 3 9 -1 9 -8 0 -7
8 -29 18 -48 11 -19 34 -75 52 -125 19 -49 36 -92 39 -95 29 -26 126 -184 206
-335 32 -60 62 -112 66 -115 4 -3 28 -44 52 -90 24 -47 64 -116 89 -155 24
-38 51 -85 59 -102 7 -18 17 -33 21 -33 5 0 8 -6 8 -14 0 -8 18 -45 40 -84 22
-38 40 -74 40 -81 0 -6 5 -11 10 -11 6 0 16 -12 22 -27 7 -16 32 -58 55 -96
24 -37 43 -69 43 -72 0 -3 25 -49 57 -103 31 -53 76 -133 101 -177 24 -44 59
-102 77 -130 46 -71 117 -194 137 -237 9 -20 25 -49 36 -65 16 -22 111 -183
167 -281 18 -31 58 -96 101 -162 23 -36 59 -99 80 -140 41 -78 92 -168 257
-447 53 -91 97 -167 97 -169 0 -3 12 -23 27 -47 15 -23 36 -59 48 -80 11 -20
69 -120 128 -221 59 -101 115 -198 125 -216 22 -41 32 -57 65 -107 16 -23 29
-48 31 -56 1 -8 6 -21 12 -28 12 -16 57 -93 178 -304 48 -82 91 -157 96 -165
5 -8 93 -161 195 -340 103 -179 196 -341 207 -360 12 -19 43 -72 69 -118 27
-45 49 -85 49 -87 0 -3 12 -24 27 -47 28 -46 307 -531 381 -663 24 -44 48 -84
52 -90 8 -11 60 -105 95 -170 12 -22 33 -58 47 -80 15 -22 58 -96 96 -165 38
-69 97 -172 130 -230 34 -58 73 -125 87 -150 13 -25 39 -67 55 -95 17 -27 43
-75 58 -105 15 -30 39 -73 53 -95 30 -46 50 -82 79 -142 11 -23 26 -48 33 -55
6 -7 25 -38 40 -68 15 -30 32 -62 37 -70 88 -143 110 -182 110 -194 0 -8 5
-18 10 -21 6 -4 22 -27 35 -53 14 -26 39 -72 56 -102 17 -30 39 -71 49 -90 10
-19 30 -50 44 -69 14 -19 26 -40 26 -47 0 -6 7 -17 15 -24 8 -7 29 -42 47 -79
17 -36 39 -75 49 -86 17 -20 98 -164 174 -310 23 -44 55 -102 73 -130 17 -27
45 -77 63 -110 17 -33 40 -72 50 -87 10 -14 19 -30 19 -35 0 -6 13 -34 30 -64
16 -30 30 -60 30 -68 0 -7 8 -21 18 -30 10 -9 25 -29 34 -46 54 -103 133 -241
148 -255 3 -3 15 -25 27 -50 12 -25 36 -70 54 -100 17 -30 38 -68 47 -85 9
-16 23 -37 30 -46 7 -9 30 -52 52 -95 21 -43 54 -104 72 -134 18 -30 42 -70
53 -89 11 -18 35 -57 54 -85 18 -28 50 -83 70 -121 21 -39 49 -88 64 -110 14
-22 27 -49 29 -60 2 -11 6 -22 9 -25 13 -11 136 -207 148 -237 7 -18 19 -38
27 -44 8 -6 14 -20 14 -30 0 -11 5 -19 11 -19 6 0 9 -6 6 -14 -3 -8 2 -21 12
-30 10 -9 28 -39 41 -66 13 -28 27 -50 30 -50 4 0 13 -21 21 -48 7 -26 21 -56
31 -66 10 -11 18 -25 18 -30 0 -6 17 -34 38 -61 39 -53 46 -66 83 -158 13 -32
33 -68 44 -81 11 -12 27 -35 35 -52 8 -16 30 -43 48 -60 17 -17 32 -39 32 -49
0 -10 6 -26 14 -34 25 -28 46 -89 33 -95 -7 -3 -6 -5 3 -5 8 -1 26 -18 40 -39
13 -20 37 -53 53 -72 40 -49 95 -145 109 -191 6 -21 15 -39 19 -39 5 0 14 -19
21 -42 7 -24 23 -58 35 -77 13 -18 20 -37 17 -42 -3 -5 1 -12 9 -15 8 -3 14
-15 13 -27 -1 -13 12 -37 32 -57 20 -21 31 -42 28 -53 -2 -9 -1 -17 4 -17 4 0
13 -20 20 -45 7 -25 22 -55 34 -67 13 -13 28 -49 35 -81 7 -31 17 -57 23 -57
23 0 98 -124 98 -162 0 -9 5 -20 10 -23 6 -3 10 -17 10 -31 0 -14 7 -27 15
-30 21 -8 19 -24 -2 -24 -10 0 -28 16 -41 35 -12 19 -29 35 -37 35 -8 0 -15 7
-15 15 0 8 -7 15 -15 15 -8 0 -12 6 -9 14 3 8 1 17 -5 21 -6 3 -11 13 -11 22
0 9 -10 24 -22 35 -17 15 -19 21 -9 27 10 6 9 10 -3 14 -9 4 -16 14 -16 24 0
10 -12 29 -25 42 -14 13 -25 29 -25 37 0 8 -7 14 -15 14 -8 0 -15 5 -15 10 0
21 -3 26 -36 67 -19 23 -34 46 -34 51 0 19 -51 112 -62 112 -5 0 -8 7 -5 15 4
8 -8 27 -28 47 -19 18 -35 36 -35 41 0 5 -16 28 -35 51 -19 24 -35 48 -35 55
0 6 -3 11 -8 11 -4 0 -16 17 -27 38 -11 20 -34 58 -52 83 -18 26 -33 53 -33
61 0 8 -4 18 -9 24 -14 15 -61 104 -61 116 0 6 -16 26 -35 45 -19 19 -35 41
-35 50 0 25 -41 104 -56 110 -8 3 -14 11 -14 18 0 7 -7 15 -15 19 -8 3 -15 13
-15 22 0 20 -38 92 -64 119 -10 11 -25 34 -32 50 -8 17 -23 44 -34 60 -10 17
-19 45 -19 63 -1 17 -5 32 -11 32 -8 0 -30 28 -75 99 -5 8 -16 21 -22 29 -7 7
-13 17 -13 22 0 5 -6 15 -13 22 -13 13 -39 60 -73 133 -11 22 -22 42 -25 45
-3 3 -9 12 -12 20 -4 8 -16 29 -27 45 -10 17 -28 48 -38 70 -11 22 -29 49 -41
59 -11 11 -21 23 -21 27 0 5 -15 32 -32 61 -18 29 -42 70 -52 90 -11 21 -23
38 -27 38 -4 0 -11 10 -15 23 -4 12 -22 46 -40 75 -19 29 -34 57 -34 62 0 6
-3 10 -8 10 -4 0 -15 17 -24 37 -9 21 -28 52 -42 68 -35 39 -86 133 -86 157 0
21 -55 108 -77 121 -7 4 -13 15 -13 24 0 8 -14 32 -30 53 -17 21 -33 52 -36
69 -4 17 -11 34 -15 37 -14 8 -39 73 -34 87 7 19 -7 35 -35 38 -13 2 -29 13
-35 24 -5 11 -20 37 -32 56 -13 20 -23 46 -23 59 0 12 -11 31 -25 42 -14 11
-25 24 -25 29 0 6 -18 36 -39 68 -53 77 -81 128 -81 146 0 8 -4 15 -8 15 -4 0
-16 20 -26 45 -11 25 -23 45 -27 45 -5 0 -18 18 -29 40 -11 22 -25 40 -30 40
-5 0 -7 7 -4 15 4 8 1 15 -5 15 -6 0 -16 12 -22 28 -23 62 -51 111 -79 138
-16 16 -30 33 -30 38 0 4 -13 27 -28 50 -15 22 -36 61 -45 85 -10 24 -29 58
-42 76 -14 17 -22 34 -19 37 3 3 -6 14 -19 25 -14 10 -28 33 -31 50 -4 16 -15
39 -24 49 -9 11 -26 36 -36 57 -10 20 -32 49 -47 64 -16 16 -29 36 -29 45 0
28 -12 48 -23 41 -6 -4 -8 0 -4 9 3 10 -19 49 -59 104 -36 48 -68 100 -71 116
-3 15 -9 28 -14 28 -5 0 -9 6 -9 14 0 8 -7 16 -15 20 -8 3 -15 14 -15 25 0 11
-12 37 -26 58 -14 21 -30 48 -35 61 -5 12 -13 22 -19 22 -5 0 -10 7 -10 15 0
8 -8 23 -19 34 -10 10 -24 35 -31 55 -6 20 -15 38 -20 41 -17 10 -70 126 -70
151 0 14 -4 22 -10 19 -5 -3 -10 1 -10 9 0 9 -3 15 -8 14 -14 -5 -59 37 -67
62 -4 14 -15 34 -24 45 -10 11 -28 45 -40 75 -13 30 -35 71 -50 90 -24 32 -49
75 -83 140 -7 14 -21 34 -31 45 -10 11 -21 32 -24 47 -3 15 -14 30 -24 33 -11
4 -19 15 -19 25 0 10 -19 47 -43 82 -23 35 -54 86 -67 113 -14 28 -31 58 -39
67 -17 22 -22 64 -11 93 9 25 -3 35 -40 35 -24 0 -58 43 -66 85 -3 18 -18 46
-33 62 -15 17 -25 36 -23 43 3 8 0 10 -8 5 -9 -5 -10 -2 -6 12 6 19 -17 56
-79 126 -8 9 -15 23 -15 30 0 7 -8 22 -19 33 -23 25 -41 59 -46 86 -3 11 -10
25 -18 32 -26 21 -64 81 -71 111 -4 17 -13 37 -20 45 -22 26 -56 91 -56 106 0
8 -3 14 -7 14 -10 0 -57 68 -59 86 -1 7 -9 20 -17 29 -9 8 -19 25 -23 38 -3
12 -16 35 -27 51 -20 29 -20 29 -1 22 10 -4 2 7 -18 24 -24 20 -38 40 -38 54
0 13 -9 31 -20 41 -11 10 -20 24 -20 32 0 7 -4 13 -10 13 -5 0 -17 15 -25 33
-32 66 -75 137 -94 159 -11 12 -28 42 -38 67 -9 25 -24 51 -33 58 -9 6 -22 29
-29 51 -7 21 -26 53 -42 69 -15 17 -25 33 -22 37 3 3 -3 18 -13 33 -22 33 -63
115 -64 126 0 5 -20 35 -45 67 -25 32 -45 65 -45 73 0 8 -7 20 -15 27 -8 7
-15 16 -15 20 0 4 -15 31 -34 59 -19 28 -40 67 -47 86 -7 19 -17 35 -22 35 -4
0 -6 4 -2 9 3 6 -8 25 -23 43 -16 18 -39 52 -51 75 -11 23 -25 45 -31 48 -6 4
-8 11 -5 16 10 15 -5 48 -24 54 -10 3 -26 26 -36 51 -9 24 -27 57 -40 72 -12
15 -30 43 -39 63 -9 20 -25 45 -34 55 -25 28 -62 99 -62 119 0 27 -31 87 -66
126 -30 34 -94 155 -94 177 0 5 -7 12 -15 15 -8 4 -21 21 -29 39 -9 18 -31 60
-50 93 -19 33 -46 83 -60 110 -13 28 -35 60 -49 73 -13 12 -30 41 -37 62 -7
22 -16 40 -20 40 -4 0 -22 30 -40 68 -17 37 -39 76 -48 87 -9 11 -23 31 -31
45 -8 14 -44 77 -80 140 -37 63 -87 158 -113 210 -26 52 -55 104 -66 116 -11
11 -23 31 -27 45 -4 13 -13 31 -19 39 -22 27 -56 91 -56 105 0 7 -5 15 -11 17
-13 4 -68 98 -109 185 -16 34 -54 100 -84 146 -31 47 -65 105 -76 131 -10 25
-28 56 -40 68 -11 12 -20 32 -20 44 0 12 -11 29 -26 39 -14 9 -23 23 -20 30 3
8 1 15 -3 17 -5 2 -28 39 -52 83 -24 44 -48 87 -54 97 -5 9 -25 41 -43 72 -19
31 -38 56 -43 56 -5 0 -9 6 -9 14 0 13 -30 72 -69 136 -11 19 -26 46 -33 60
-7 14 -24 41 -38 60 -14 19 -35 53 -45 75 -11 22 -29 54 -41 70 -20 30 -54 97
-54 109 0 4 -19 39 -43 79 -24 39 -54 95 -68 122 -13 28 -28 53 -34 57 -5 4
-6 10 -2 14 4 4 -2 21 -12 38 -11 17 -29 60 -41 96 -12 36 -26 69 -31 75 -5 5
-9 16 -9 25 0 9 -9 35 -20 58 -11 23 -25 64 -30 90 -5 26 -13 58 -18 72 -5 14
-10 55 -11 90 -1 36 -2 72 -3 80 -3 31 4 84 9 67 2 -9 9 -14 15 -11z m2058
-411 c14 -17 7 -71 -14 -94 -13 -16 -18 -31 -36 -99 -7 -28 -5 -37 12 -54 21
-21 43 -20 103 7 17 7 58 21 93 31 34 10 62 21 62 26 0 4 14 8 31 8 17 0 45 6
62 13 103 44 145 47 176 11 20 -24 21 -28 8 -41 -13 -13 -206 -76 -314 -103
-83 -20 -179 -88 -156 -111 6 -6 26 -15 44 -19 182 -48 247 -80 235 -117 -4
-12 -13 -24 -21 -27 -19 -7 -474 143 -501 165 -6 5 -14 6 -17 2 -4 -3 -7 12
-7 34 0 43 13 81 60 178 15 33 39 83 52 110 13 28 30 57 38 66 28 31 71 37 90
14z m-14624 -291 c-4 -9 -9 -15 -11 -12 -3 3 -3 13 1 22 4 9 9 15 11 12 3 -3
3 -13 -1 -22z m18439 -443 c38 -16 82 -66 90 -102 14 -61 64 -139 90 -139 14
0 50 -39 59 -65 4 -11 9 -36 11 -57 10 -92 -118 -175 -263 -170 -45 2 -117 35
-147 69 -29 33 -49 96 -41 130 7 25 -7 43 -76 95 -46 35 -65 101 -45 151 25
58 80 93 172 109 29 5 115 -7 150 -21z m-18607 -53 c14 -14 16 -54 3 -63 -12
-7 -54 52 -46 65 8 14 28 13 43 -2z m18080 -90 c60 -21 133 -63 145 -85 7 -11
27 -42 44 -69 18 -27 35 -64 39 -81 3 -18 11 -33 17 -33 6 0 8 -26 4 -76 -6
-60 -12 -82 -33 -110 -38 -50 -76 -73 -128 -80 -78 -11 -103 35 -43 76 34 23
67 71 67 96 0 17 -41 19 -58 2 -8 -8 -42 -13 -91 -13 -68 0 -83 3 -119 27 -89
60 -122 114 -122 204 0 54 2 59 42 96 59 55 156 74 236 46z m-4988 -119 c0 -5
-5 -9 -12 -9 -6 0 -8 3 -5 7 4 3 1 13 -6 22 -11 14 -10 14 6 2 9 -7 17 -17 17
-22z m4238 -106 c32 -21 46 -37 72 -83 24 -41 35 -60 73 -117 15 -23 27 -44
27 -48 0 -3 16 -28 35 -56 19 -28 33 -55 30 -59 -3 -4 2 -13 9 -19 20 -17 31
-88 16 -106 -15 -18 -60 -19 -83 -2 -15 12 -146 219 -148 235 0 4 -15 27 -33
52 -37 51 -67 60 -116 35 -46 -24 -80 -13 -80 25 0 36 64 111 119 140 45 24
46 24 79 3z m-4084 -173 c-7 -6 -24 22 -23 40 0 9 6 5 14 -10 7 -14 11 -27 9
-30z m3719 22 c17 -9 40 -25 51 -34 20 -18 46 -79 46 -110 0 -32 21 -63 58
-88 20 -14 44 -34 54 -45 23 -28 40 -91 32 -118 -35 -117 -225 -180 -348 -117
-69 35 -78 53 -44 87 l27 26 75 -21 c91 -27 97 -27 130 -1 33 26 35 70 4 99
-27 25 -24 24 -128 25 -108 0 -115 14 -41 86 28 27 51 54 51 60 0 24 -24 52
-55 65 -49 20 -98 -2 -126 -59 -12 -23 -27 -45 -33 -49 -18 -12 -63 -9 -73 5
-48 61 11 163 115 198 59 20 162 15 205 -9z m-3661 -109 c10 -20 16 -39 13
-41 -4 -5 -45 59 -45 71 0 18 17 3 32 -30z m3192 -43 c62 -30 91 -80 90 -154
0 -34 -8 -81 -17 -106 -51 -139 -49 -131 -31 -151 15 -17 24 -17 69 0 94 36
118 41 144 28 35 -17 41 -59 9 -74 -42 -21 -313 -103 -339 -103 -14 0 -34 9
-43 19 -20 22 -15 67 16 141 33 78 36 84 51 130 26 77 28 98 13 135 -20 46
-68 68 -119 54 -41 -11 -53 -23 -70 -75 -8 -21 -26 -47 -40 -58 l-27 -20 -25
24 c-47 44 -28 135 37 182 59 42 72 46 157 47 66 1 94 -3 125 -19z m1418 -32
c29 -34 5 -68 -48 -68 -23 0 -36 7 -48 24 -19 29 -13 49 17 64 27 13 57 5 79
-20z m-4561 -20 c11 -21 11 -22 -4 -9 -10 7 -17 17 -17 22 0 15 9 10 21 -13z
m-11185 -45 c-11 -11 -17 4 -9 23 7 18 8 18 11 1 2 -10 1 -21 -2 -24z m13857
-35 c28 -37 13 -52 -77 -80 -103 -32 -134 -66 -85 -96 22 -14 98 -8 133 10 13
7 38 6 80 -3 52 -11 68 -20 117 -68 54 -53 57 -59 64 -119 6 -57 5 -66 -19
-102 -33 -49 -99 -80 -188 -87 -55 -5 -74 -2 -111 16 -94 46 -101 93 -13 99
32 2 51 -2 62 -13 18 -17 85 -17 115 0 52 32 43 108 -19 150 -59 40 -123 32
-202 -26 -18 -14 -33 -17 -55 -11 -26 6 -37 22 -83 116 -46 94 -52 113 -43
133 12 26 101 73 138 73 12 0 25 5 28 10 3 6 19 10 35 10 16 0 32 5 35 11 13
19 67 5 88 -23z m-12375 -7 c5 -29 -13 -50 -29 -34 -15 15 -3 66 14 60 7 -2
14 -14 15 -26z m10417 -137 c9 -15 12 -23 6 -20 -11 7 -35 46 -28 46 3 0 12
-12 22 -26z m1475 0 c7 -7 10 -23 8 -36 -2 -19 -17 -28 -80 -49 -42 -14 -87
-33 -100 -41 -22 -15 -22 -18 -7 -45 17 -32 40 -34 141 -13 48 10 65 9 106 -4
90 -30 145 -87 164 -170 24 -107 -78 -196 -225 -196 -72 0 -143 30 -160 67 -9
21 -8 27 8 39 25 19 74 18 95 -1 45 -41 145 -18 164 37 13 37 -9 84 -53 114
-56 38 -105 31 -211 -31 -14 -8 -33 -15 -42 -15 -25 0 -59 52 -102 153 -36 87
-37 89 -19 109 24 27 110 66 197 88 72 18 98 17 116 -6z m-1406 -120 c20 -36
35 -68 32 -72 -7 -6 -7 -7 -29 38 -10 19 -27 50 -38 68 -12 17 -17 32 -12 32
5 0 26 -30 47 -66z m-529 -91 c11 -21 21 -41 23 -45 2 -5 -1 -8 -7 -8 -6 0
-13 11 -17 25 -3 13 -12 29 -20 36 -15 13 -19 29 -6 29 5 0 17 -17 27 -37z
m646 -108 c18 -33 76 -134 129 -225 54 -91 107 -181 118 -200 64 -114 207
-359 223 -382 11 -15 19 -29 19 -32 0 -2 27 -50 60 -106 33 -56 60 -103 60
-105 0 -2 28 -50 61 -107 34 -57 79 -132 99 -168 115 -199 264 -455 348 -600
52 -91 116 -201 142 -245 26 -44 84 -145 130 -225 46 -80 114 -197 151 -260
36 -63 142 -245 234 -405 93 -159 227 -391 298 -515 72 -124 222 -385 334
-580 111 -195 211 -368 222 -385 10 -16 30 -50 43 -75 14 -25 34 -61 45 -80
60 -106 104 -192 100 -197 -3 -2 -22 26 -44 64 -21 37 -42 75 -48 85 -5 9 -47
81 -93 160 -46 79 -87 150 -92 158 -39 64 -360 621 -453 785 -34 60 -107 185
-137 235 -5 8 -58 101 -119 205 -100 173 -226 391 -429 740 -137 235 -324 559
-362 625 -44 77 -195 337 -290 500 -37 63 -79 135 -92 160 -35 62 -83 144
-161 278 -37 62 -67 115 -67 117 0 2 -19 36 -43 77 -24 40 -55 93 -69 118 -14
25 -69 122 -123 215 -144 248 -144 249 -151 265 -8 17 -66 118 -101 172 -13
21 -23 41 -23 45 1 16 51 -53 81 -112z m-10158 45 c-3 -11 -9 -20 -14 -20 -10
0 -12 24 -2 33 13 13 21 7 16 -13z m9603 -92 c7 -12 19 -34 26 -48 7 -14 23
-39 35 -56 13 -17 23 -34 23 -38 0 -4 26 -50 58 -104 51 -85 114 -195 181
-314 12 -21 30 -53 40 -70 108 -186 201 -349 201 -353 0 -3 8 -18 18 -33 37
-53 65 -101 232 -392 170 -298 192 -336 256 -445 20 -33 46 -78 58 -100 22
-37 148 -256 324 -560 41 -71 153 -267 250 -435 96 -168 194 -336 217 -375 23
-38 148 -254 277 -480 130 -225 274 -477 322 -559 47 -82 86 -150 86 -151 0
-3 93 -165 150 -260 60 -102 120 -212 120 -222 0 -21 -71 97 -338 562 -63 110
-132 228 -153 262 -22 34 -39 65 -39 69 0 3 -38 69 -84 147 -46 78 -136 234
-201 347 -110 192 -140 243 -221 380 -74 127 -446 770 -557 965 -43 77 -94
165 -112 195 -96 163 -182 311 -258 445 -111 196 -112 198 -204 356 -44 74
-82 142 -86 150 -4 8 -25 43 -47 78 -22 34 -40 65 -40 67 0 5 -155 276 -285
499 -32 55 -78 136 -103 180 -24 44 -55 94 -68 112 -13 17 -24 36 -24 41 0 5
-20 46 -45 91 -25 45 -45 84 -45 88 0 10 20 -12 36 -39z m21494 -38 c4 -8 15
-30 24 -48 16 -30 14 -78 -2 -68 -4 2 -18 0 -31 -5 -20 -8 -23 -14 -19 -54 2
-34 0 -45 -11 -45 -18 0 -51 29 -51 45 0 6 -15 29 -34 50 -40 45 -51 77 -36
106 11 20 34 22 35 3 1 -18 17 -54 23 -54 36 1 52 14 52 44 0 18 3 36 7 40 11
10 35 3 43 -14z m-334 -97 c1 -17 9 -46 18 -64 16 -32 21 -59 10 -59 -17 0
-46 24 -59 50 -18 34 -19 64 -4 91 15 28 33 18 35 -18z m104 22 c0 -8 6 -12
14 -9 8 3 24 -5 36 -18 52 -54 66 -142 28 -178 -32 -29 -41 -25 -33 16 5 29 1
44 -19 75 -14 21 -26 52 -26 69 0 25 -6 34 -32 45 l-33 14 33 1 c22 0 32 -5
32 -15z m-31580 -12 c0 -5 -5 -15 -10 -23 -8 -12 -10 -11 -10 8 0 12 5 22 10
22 6 0 10 -3 10 -7z m31897 -25 c6 -7 13 -30 17 -50 6 -35 5 -38 -17 -38 -19
0 -26 7 -31 31 -9 49 -7 69 8 69 7 0 18 -6 23 -12z m-37132 -8 c-3 -5 -13 -10
-21 -10 -8 0 -14 5 -14 10 0 6 9 10 21 10 11 0 17 -4 14 -10z m36446 -40 c10
-6 19 -16 19 -23 0 -7 13 -27 29 -44 16 -18 27 -34 24 -37 -3 -3 6 -15 21 -28
19 -16 28 -37 32 -70 4 -30 3 -48 -3 -48 -13 0 -89 88 -134 154 -32 48 -33 49
-47 28 -20 -31 -42 -28 -42 6 0 57 10 72 47 72 19 0 43 -5 54 -10z m-38931
-25 c0 -18 -4 -23 -15 -19 -17 7 -17 7 -9 28 9 24 24 19 24 -9z m38720 -10 c0
-6 15 -16 33 -21 25 -8 37 -21 56 -58 16 -32 33 -52 51 -59 24 -9 29 -18 34
-60 7 -52 -3 -77 -33 -77 -9 -1 -40 -9 -69 -19 -29 -10 -55 -14 -58 -10 -8 13
-24 11 -24 -4 0 -11 -43 -34 -134 -72 -31 -13 -34 -13 -45 8 -14 28 -16 74 -3
113 8 26 6 37 -8 60 -11 15 -28 28 -40 29 -23 2 -36 -10 -21 -19 5 -3 7 -15 4
-26 -3 -11 2 -31 10 -44 16 -23 16 -37 2 -68 -4 -10 -5 -25 -1 -33 12 -32 -11
-62 -51 -68 -21 -2 -42 -1 -47 4 -6 5 -17 2 -27 -7 -17 -15 -20 -14 -43 12
-14 16 -26 35 -26 42 0 6 -4 12 -8 12 -5 0 -10 -26 -11 -57 -2 -64 -10 -77
-49 -80 -103 -8 -132 1 -132 38 0 26 25 24 44 -3 13 -18 18 -19 31 -8 8 7 15
9 15 4 0 -4 5 -3 11 3 5 5 7 22 3 37 -7 30 -62 52 -79 31 -5 -6 -22 -19 -36
-29 l-26 -17 -38 76 c-38 75 -38 76 -19 96 11 10 43 25 72 33 49 12 53 12 63
-5 5 -11 7 -19 4 -19 -3 0 -1 -9 5 -20 17 -31 28 -24 35 23 11 73 13 75 61 83
50 7 88 38 80 66 -8 33 9 26 33 -12 l24 -38 25 29 c37 44 52 50 117 39 31 -5
65 -12 74 -15 12 -4 19 3 26 27 6 18 20 37 31 42 12 6 29 22 38 38 17 27 46
29 46 3z m-32119 -18 c-13 -13 -26 -3 -16 12 3 6 11 8 17 5 6 -4 6 -10 -1 -17z
m32487 -23 c2 -12 -4 -24 -12 -27 -11 -4 -13 -1 -9 10 5 12 2 15 -10 10 -19
-7 -20 -6 -11 18 9 22 38 14 42 -11z m-32575 -69 c-8 -22 -22 -18 -16 5 3 11
9 17 14 15 4 -3 6 -12 2 -20z m1737 -71 c0 -8 -4 -12 -10 -9 -5 3 -10 10 -10
16 0 5 5 9 10 9 6 0 10 -7 10 -16z m3840 -4 c0 -5 -4 -10 -10 -10 -5 0 -10 5
-10 10 0 6 5 10 10 10 6 0 10 -4 10 -10z m22913 -259 c10 -16 13 -32 8 -35
-11 -7 -26 11 -35 42 -10 32 7 27 27 -7z m-25323 -30 c0 -12 -20 -25 -27 -18
-7 7 6 27 18 27 5 0 9 -4 9 -9z m24300 -11 c0 -11 -4 -20 -10 -20 -5 0 -10 2
-10 4 0 2 -3 11 -6 20 -4 11 -1 16 10 16 9 0 16 -8 16 -20z m-154 -25 c9 -14
14 -28 10 -32 -8 -9 -46 27 -46 44 0 21 18 15 36 -12z m-143 -52 c39 -58 44
-73 27 -73 -11 0 -90 116 -90 131 0 20 29 -6 63 -58z m1071 -27 c49 -64 71
-116 49 -116 -8 0 -87 120 -112 168 -24 46 8 20 63 -52z m-516 -14 c32 -47 40
-72 23 -72 -9 0 -71 96 -71 111 0 20 17 7 48 -39z m-308 -56 c13 -25 21 -48
17 -52 -17 -18 -86 84 -72 107 10 15 26 -2 55 -55z m530 -37 c0 -10 -2 -19 -6
-19 -6 0 -34 65 -34 77 1 17 40 -40 40 -58z m195 -9 c18 -34 18 -40 5 -40 -9
0 -60 72 -60 85 0 15 42 -19 55 -45z m-821 -81 c-1 -19 -6 -50 -11 -69 l-9
-35 -7 57 c-4 31 -4 64 -1 73 11 27 29 10 28 -26z m571 -69 c32 -47 61 -87 66
-90 4 -3 4 -11 0 -19 -6 -9 -25 12 -65 70 -57 83 -86 131 -86 146 0 13 25 -18
85 -107z m-29181 78 c-12 -40 -38 -49 -54 -19 -8 16 -6 22 7 30 10 6 26 11 36
11 14 0 17 -5 11 -22z m29524 -68 c26 -46 30 -69 7 -50 -15 13 -45 67 -45 82
0 19 16 5 38 -32z m-153 -31 c4 -11 4 -23 0 -27 -7 -7 -25 17 -25 36 0 20 18
14 25 -9z m566 -41 c21 -26 25 -58 7 -58 -20 0 -48 32 -48 57 0 29 16 30 41 1z
m-23230 -31 c-8 -8 -11 -5 -11 9 0 27 14 41 18 19 2 -9 -1 -22 -7 -28z m-7648
-13 c10 -10 -12 -44 -27 -44 -16 0 -29 27 -20 41 6 10 38 12 47 3z m29324 -21
c37 -47 64 -96 61 -111 -3 -12 -18 4 -46 47 -23 35 -42 68 -42 73 0 13 12 9
27 -9z m1973 -46 c41 -56 49 -77 28 -77 -12 0 -65 74 -80 112 -14 35 12 17 52
-35z m-30350 -2 c0 -8 -7 -15 -15 -15 -16 0 -20 12 -8 23 11 12 23 8 23 -8z
m32278 -18 c26 -39 31 -67 7 -47 -8 7 -15 18 -15 25 0 7 -7 18 -15 25 -8 7
-15 16 -15 21 0 18 16 8 38 -24z m-3984 -89 c-8 -13 -44 30 -43 52 0 10 8 5
24 -13 14 -16 22 -33 19 -39z m356 35 c0 -5 3 -18 6 -30 5 -17 2 -23 -9 -23
-16 0 -37 28 -37 49 0 12 40 15 40 4z m-74 -91 c-7 -67 -19 -102 -36 -102 -6
0 -10 7 -10 16 0 9 -14 41 -30 71 -32 58 -32 85 0 45 10 -12 20 -28 22 -34 8
-22 26 2 33 42 11 67 28 36 21 -38z m1729 -24 c36 -55 49 -102 20 -78 -32 27
-80 130 -60 130 2 0 20 -24 40 -52z m373 -41 c7 -12 32 -49 56 -82 51 -68 92
-142 84 -150 -5 -5 -49 47 -73 87 -5 9 -29 44 -52 77 -48 70 -62 104 -40 95 8
-3 19 -15 25 -27z m341 4 c14 -25 1 -35 -15 -13 -16 20 -17 32 -4 32 5 0 14
-8 19 -19z m544 -19 c97 -129 113 -157 97 -167 -8 -5 -140 184 -140 200 0 14
18 0 43 -33z m-37538 -12 c-3 -5 -11 -10 -16 -10 -6 0 -7 5 -4 10 3 6 11 10
16 10 6 0 7 -4 4 -10z m37959 -89 c31 -46 56 -91 54 -100 -4 -21 -128 157
-128 183 0 25 3 21 74 -83z m-34119 69 c3 -5 -3 -10 -15 -10 -12 0 -18 5 -15
10 3 6 10 10 15 10 5 0 12 -4 15 -10z m34985 -63 c39 -63 45 -87 11 -51 -18
19 -71 109 -71 120 0 15 25 -14 60 -69z m-166 -23 c3 -8 2 -12 -4 -9 -6 3 -10
10 -10 16 0 14 7 11 14 -7z m-1363 -46 c7 -13 16 -26 22 -29 12 -8 -1 -32 -13
-24 -4 3 -17 21 -29 40 -16 27 -17 35 -6 35 8 0 20 -10 26 -22z m525 8 c8 -8
14 -17 14 -20 0 -3 16 -27 35 -52 48 -63 67 -101 55 -109 -6 -3 -13 2 -17 12
-4 10 -10 20 -13 23 -13 9 -100 141 -100 151 0 13 9 11 26 -5z m-807 -106 c49
-77 63 -108 40 -94 -13 8 -109 153 -109 165 0 24 22 1 69 -71z m-132 -63 c26
-40 64 -93 85 -118 33 -40 49 -79 32 -79 -13 0 -44 22 -44 31 0 5 -8 22 -18
37 -91 133 -122 183 -122 197 0 26 17 9 67 -68z m651 54 c4 -28 -13 -20 -21 9
-3 14 -1 20 6 17 7 -2 14 -14 15 -26z m-28028 -5 c0 -18 -16 -29 -30 -21 -13
8 -1 35 16 35 8 0 14 -6 14 -14z m27230 -86 c17 -25 47 -69 66 -97 19 -29 38
-53 43 -53 4 0 16 -19 27 -42 10 -24 33 -61 51 -84 34 -42 44 -78 19 -68 -7 3
-17 14 -22 24 -5 11 -33 52 -61 92 -84 116 -183 272 -183 288 0 13 2 13 14 0
8 -8 28 -35 46 -60z m-29173 -45 c3 -9 3 -18 0 -21 -10 -10 -47 7 -47 22 0 19
39 18 47 -1z m15481 -10 c-3 -3 -9 2 -12 12 -6 14 -5 15 5 6 7 -7 10 -15 7
-18z m-24911 -17 c-3 -8 -6 -5 -6 6 -1 11 2 17 5 13 3 -3 4 -12 1 -19z m6727
-94 c8 -22 8 -24 -7 -24 -7 0 -13 9 -13 20 0 24 11 26 20 4z m18257 -6 c11
-21 11 -22 -4 -9 -10 7 -17 17 -17 22 0 15 9 10 21 -13z m-15391 -8 c0 -5 -5
-10 -11 -10 -5 0 -7 5 -4 10 3 6 8 10 11 10 2 0 4 -4 4 -10z m27040 -57 c0
-20 -18 -16 -30 7 -15 28 -1 49 17 25 7 -11 13 -25 13 -32z m2995 31 c14 -9
25 -23 25 -30 0 -8 11 -32 25 -54 28 -44 31 -60 13 -60 -7 0 -28 25 -47 55
-18 30 -39 60 -47 66 -16 13 -19 39 -4 39 6 0 22 -7 35 -16z m-14585 -64 c0
-5 -2 -10 -4 -10 -3 0 -8 5 -11 10 -3 6 -1 10 4 10 6 0 11 -4 11 -10z m11020
-152 c70 -105 87 -148 61 -148 -24 0 -186 254 -177 277 10 24 29 3 116 -129z
m-31260 122 c0 -5 -4 -10 -10 -10 -5 0 -10 5 -10 10 0 6 5 10 10 10 6 0 10 -4
10 -10z m34736 -62 c27 -40 55 -79 62 -86 13 -15 16 -32 5 -32 -10 0 -123 166
-123 180 0 18 6 11 56 -62z m-3357 26 c6 -14 9 -30 6 -35 -9 -13 -42 7 -50 31
-14 45 24 48 44 4z m-28989 -56 c0 -10 -34 -10 -43 -1 -4 3 1 12 11 19 16 12
31 3 32 -18z m28150 -2 c0 -7 3 -28 6 -45 8 -40 -13 -34 -39 11 -14 25 -15 33
-5 39 20 13 38 11 38 -5z m1265 -57 c12 -22 22 -29 45 -29 l30 0 -19 -32 c-27
-50 -43 -45 -73 23 -36 79 -21 112 17 38z m-1412 7 c-3 -13 0 -27 6 -30 14 -9
15 -46 1 -46 -5 0 -17 12 -27 26 -9 14 -25 29 -36 33 -18 7 -18 8 -2 24 9 9
27 17 39 17 19 0 22 -4 19 -24z m-10160 -6 c3 -12 0 -20 -7 -20 -6 0 -12 9
-12 20 0 11 3 20 7 20 4 0 9 -9 12 -20z m11659 -12 c-7 -7 -12 -8 -12 -2 0 14
12 26 19 19 2 -3 -1 -11 -7 -17z m-389 -59 c54 -84 65 -109 44 -109 -17 0
-117 142 -117 165 0 34 29 11 73 -56z m189 -21 c18 -26 42 -49 53 -50 19 -3
19 -4 -4 -25 -28 -26 -47 -21 -56 15 -3 14 -20 42 -36 63 -16 20 -29 43 -29
51 0 24 14 30 26 11 7 -10 27 -39 46 -65z m-37264 35 c2 -8 -5 -13 -17 -13
-12 0 -21 6 -21 16 0 18 31 15 38 -3z m36712 -18 c0 -7 -6 -15 -14 -18 -18 -7
-31 24 -14 34 15 9 28 2 28 -16z m-22014 -22 c-5 -12 -10 -13 -18 -5 -8 8 -8
15 3 28 15 18 25 4 15 -23z m21670 0 c31 -43 33 -48 25 -62 -6 -10 -16 -3 -35
25 -40 59 -31 93 10 37z m-10859 -19 c-3 -3 -12 -4 -19 -1 -8 3 -5 6 6 6 11 1
17 -2 13 -5z m11083 -36 c11 -18 20 -41 20 -50 0 -33 -25 -18 -53 32 -27 48
-27 50 -7 50 12 0 28 -13 40 -32z m-25710 8 c0 -18 -17 -29 -30 -21 -8 5 -7
11 1 21 15 18 29 18 29 0z m25053 -89 c80 -120 92 -147 63 -147 -16 0 -146
197 -146 222 0 33 28 7 83 -75z m-22377 36 c-10 -10 -19 5 -10 18 6 11 8 11
12 0 2 -7 1 -15 -2 -18z m22739 -55 c36 -54 45 -83 23 -76 -16 5 -78 96 -78
114 0 27 20 13 55 -38z m-815 17 c-13 -14 -28 -25 -34 -25 -6 0 3 11 19 25 39
31 45 32 15 0z m1389 -70 c51 -80 78 -104 100 -90 6 3 8 -8 5 -27 -4 -27 3
-46 41 -102 42 -64 51 -96 26 -96 -6 0 -18 12 -28 26 -10 14 -40 55 -66 92
-27 36 -53 75 -57 87 -5 12 -31 56 -59 97 -55 80 -61 98 -33 98 11 0 37 -31
71 -85z m-25674 56 c3 -6 -4 -15 -15 -21 -17 -9 -20 -8 -20 10 0 20 24 28 35
11z m14269 -12 c-29 -12 -36 -10 -22 5 7 7 19 11 27 8 11 -4 10 -7 -5 -13z
m11040 -39 c29 -44 32 -60 14 -60 -16 0 -58 61 -58 83 0 28 16 20 44 -23z
m205 -36 c53 -80 63 -104 45 -111 -14 -5 -114 140 -114 166 0 37 18 23 69 -55z
m-29699 52 c0 -12 -40 -26 -77 -26 -11 0 -11 4 -3 20 13 24 80 29 80 6z
m18475 4 c-3 -5 -10 -10 -16 -10 -5 0 -9 5 -9 10 0 6 7 10 16 10 8 0 12 -4 9
-10z m-35 -9 c0 -5 -11 -11 -25 -13 -14 -3 -25 -3 -25 -1 0 3 34 19 48 22 1 1
2 -3 2 -8z m9931 -21 c-22 -19 -41 -26 -41 -15 0 5 51 34 60 34 3 0 -6 -9 -19
-19z m455 -47 c61 -91 96 -145 114 -178 l20 -35 -25 0 c-15 0 -29 9 -36 23 -7
12 -38 62 -71 110 -32 48 -58 94 -58 102 0 28 30 15 56 -22z m374 -35 c0 -22
-41 -5 -55 22 -24 47 -7 60 27 20 15 -19 28 -38 28 -42z m-885 52 c-3 -5 -12
-10 -18 -10 -7 0 -6 4 3 10 19 12 23 12 15 0z m-55 -43 c0 -2 -10 -12 -21 -23
-22 -19 -22 -19 -10 4 10 18 31 31 31 19z m-22280 -101 c0 -11 -19 -15 -25 -6
-3 5 1 10 9 10 9 0 16 -2 16 -4z m22155 -71 c-29 -56 -30 -63 -10 -101 8 -17
11 -32 6 -37 -14 -14 -71 24 -71 48 0 11 -11 37 -25 57 -14 20 -25 42 -25 47
0 20 24 11 46 -16 l22 -28 38 42 c21 24 39 41 41 39 2 -2 -8 -25 -22 -51z
m-23651 3 c22 -31 20 -40 -6 -36 -17 2 -24 11 -26 31 -4 33 11 35 32 5z
m23760 -18 c28 -43 33 -70 14 -70 -14 0 -68 79 -68 99 0 24 29 9 54 -29z
m-12834 -24 c0 -12 -5 -7 -19 24 -11 24 -11 24 3 6 9 -11 16 -24 16 -30z
m-9534 -13 c-10 -10 -19 5 -10 18 6 11 8 11 12 0 2 -7 1 -15 -2 -18z m23137
-33 c41 -65 46 -90 20 -90 -20 0 -93 106 -93 133 0 36 36 15 73 -43z m-29898
21 c-3 -6 -11 -11 -17 -11 -6 0 -6 6 2 15 14 17 26 13 15 -4z m6816 -54 c-13
-13 -26 -3 -16 12 3 6 11 8 17 5 6 -4 6 -10 -1 -17z m1269 10 c0 -16 -48 -63
-56 -55 -3 4 0 17 7 30 19 36 49 51 49 25z m21296 -29 c57 -66 76 -109 54
-123 -10 -6 -89 111 -90 133 0 19 14 14 36 -10z m198 -24 c24 -9 20 -44 -4
-44 -15 0 -20 7 -20 25 0 27 1 28 24 19z m845 -71 c-19 -26 -35 -50 -36 -52
-2 -2 -5 -2 -8 0 -2 3 12 29 31 58 20 29 38 50 41 47 3 -2 -10 -26 -28 -53z
m1131 22 c-7 -9 -15 -13 -17 -11 -7 7 7 26 19 26 6 0 6 -6 -2 -15z m-17900
-30 c0 -8 -7 -15 -15 -15 -16 0 -20 12 -8 23 11 12 23 8 23 -8z m15290 -25 c0
-28 -4 -40 -14 -40 -23 0 -29 19 -16 51 17 41 30 36 30 -11z m174 -12 c20 -28
20 -38 2 -38 -14 0 -46 36 -46 52 0 17 30 7 44 -14z m374 -25 c48 -68 102
-157 102 -169 0 -17 -17 -18 -33 -1 -23 23 -107 160 -107 174 0 19 23 16 38
-4z m-31372 -17 c22 -17 11 -35 -13 -20 -19 12 -29 34 -16 34 5 0 18 -6 29
-14z m8162 -24 c2 -7 -6 -12 -17 -12 -21 0 -27 11 -14 24 9 9 26 2 31 -12z
m23072 -24 c35 -47 37 -58 13 -58 -19 1 -63 61 -63 86 0 25 19 15 50 -28z
m994 27 c-4 -8 -8 -15 -10 -15 -2 0 -4 7 -4 15 0 8 4 15 10 15 5 0 7 -7 4 -15z
m-30594 -35 c0 -5 -5 -10 -11 -10 -5 0 -7 5 -4 10 3 6 8 10 11 10 2 0 4 -4 4
-10z m29146 -75 c-4 -18 -12 -38 -20 -44 -10 -8 -9 4 3 50 16 61 28 56 17 -6z
m-12386 34 c0 -6 -4 -7 -10 -4 -5 3 -10 11 -10 16 0 6 5 7 10 4 6 -3 10 -11
10 -16z m13479 -94 c45 -66 57 -93 49 -102 -18 -22 -26 -16 -76 60 -71 104
-77 118 -61 128 8 5 17 8 21 6 4 -1 35 -42 67 -92z m-20019 46 c0 -6 -4 -13
-10 -16 -5 -3 -10 1 -10 9 0 9 5 16 10 16 6 0 10 -4 10 -9z m21360 4 c0 -11
-90 -95 -102 -95 -7 0 12 23 41 50 52 49 61 55 61 45z m-15795 -35 c0 -7 -6
-15 -12 -17 -8 -3 -13 4 -13 17 0 13 5 20 13 18 6 -3 12 -11 12 -18z m-11842
-27 c9 -9 -12 -33 -29 -33 -17 0 -18 27 -1 33 18 8 23 8 30 0z m25160 -10 c-9
-22 -35 -53 -45 -53 -5 0 2 16 14 35 24 36 42 47 31 18z m-19784 -46 c6 -8 8
-17 4 -20 -7 -8 -33 11 -33 24 0 13 16 11 29 -4z m22124 -36 c-15 -22 -34 -40
-42 -41 -7 0 4 19 25 43 22 24 40 42 42 41 2 -1 -9 -20 -25 -43z m-2412 -12
c-11 -12 -24 -20 -27 -16 -4 4 4 15 17 26 31 25 37 19 10 -10z m-146 -19 c20
-29 33 -39 44 -34 35 14 51 16 51 5 0 -6 -4 -11 -8 -11 -5 0 -13 -10 -19 -22
-7 -17 -4 -31 15 -65 13 -23 28 -45 33 -48 5 -4 9 -15 9 -26 0 -37 -36 -21
-69 30 -17 26 -40 56 -51 66 -11 10 -20 27 -20 37 0 11 -12 35 -26 53 -25 34
-25 55 0 55 7 0 26 -18 41 -40z m385 -32 c51 -72 58 -92 40 -103 -16 -10 -37
12 -81 86 -37 62 -43 89 -19 89 5 0 32 -32 60 -72z m-19750 52 c0 -5 -5 -10
-11 -10 -5 0 -7 5 -4 10 3 6 8 10 11 10 2 0 4 -4 4 -10z m21855 -70 c-10 -11
-20 -18 -23 -15 -7 6 18 35 31 35 5 0 2 -9 -8 -20z m-60 -60 c-10 -11 -20 -18
-23 -15 -3 3 3 14 13 25 10 11 20 18 23 15 3 -3 -3 -14 -13 -25z m-965 15 c0
-2 -10 -10 -22 -16 -21 -11 -22 -11 -9 4 13 16 31 23 31 12z m-18210 -21 c0
-8 -5 -12 -10 -9 -6 4 -8 11 -5 16 9 14 15 11 15 -7z m16690 -4 c0 -5 -6 -10
-13 -10 -6 0 -28 -20 -47 -45 -19 -25 -44 -58 -56 -73 -12 -15 -26 -37 -33
-50 -7 -12 -17 -20 -22 -16 -6 3 1 20 15 39 15 19 26 37 26 40 0 14 76 104 95
114 26 13 35 13 35 1z m1470 -35 c-7 -9 -15 -13 -18 -10 -3 2 1 11 8 20 7 9
15 13 18 10 3 -2 -1 -11 -8 -20z m980 -15 c0 -5 -2 -10 -4 -10 -3 0 -8 5 -11
10 -3 6 -1 10 4 10 6 0 11 -4 11 -10z m-24258 -25 c-7 -37 -48 -110 -62 -110
-29 0 -23 42 9 65 21 14 31 30 31 47 0 15 5 23 13 20 6 -2 11 -12 9 -22z
m-3612 -5 c0 -5 -6 -10 -14 -10 -8 0 -18 5 -21 10 -3 6 3 10 14 10 12 0 21 -4
21 -10z m27841 -33 c-13 -13 -15 1 -4 30 7 17 8 17 11 -1 2 -10 -1 -23 -7 -29z
m-26961 13 c0 -5 -7 -10 -16 -10 -8 0 -12 5 -9 10 3 6 10 10 16 10 5 0 9 -4 9
-10z m7117 -32 c-3 -7 -5 -2 -5 12 0 14 2 19 5 13 2 -7 2 -19 0 -25z m18790
-16 c-48 -47 -107 -119 -107 -131 0 -3 -9 -12 -20 -19 -11 -7 -20 -10 -20 -8
0 11 145 183 163 193 37 21 34 14 -16 -35z m-22867 -26 c0 -2 -9 -6 -20 -9
-11 -3 -20 -1 -20 4 0 5 9 9 20 9 11 0 20 -2 20 -4z m21942 -23 c10 -9 18 -24
18 -35 0 -36 -52 -13 -65 30 -8 27 19 31 47 5z m182 1 c11 -28 7 -35 -16 -32
-30 4 -39 48 -10 48 11 0 23 -7 26 -16z m1759 -65 c-5 -5 -7 7 -4 29 5 34 6
35 9 8 2 -16 0 -32 -5 -37z m-2553 41 c0 -5 -7 -10 -16 -10 -8 0 -12 5 -9 10
3 6 10 10 16 10 5 0 9 -4 9 -10z m-11555 -21 c6 -19 0 -38 -9 -28 -10 12 -16
49 -7 49 5 0 13 -9 16 -21z m-9830 -39 c-10 -11 -22 -17 -27 -14 -5 3 2 16 14
29 27 28 39 13 13 -15z m21354 0 c-9 -26 -6 -36 27 -85 24 -36 33 -60 27 -66
-15 -15 -36 -2 -61 36 -12 19 -29 35 -37 35 -9 0 -15 9 -15 24 0 13 -3 31 -6
40 -4 11 4 20 28 30 46 20 48 20 37 -14z m-24089 5 c-7 -9 -15 -13 -17 -11 -7
7 7 26 19 26 6 0 6 -6 -2 -15z m9070 0 c0 -8 -4 -15 -10 -15 -5 0 -10 7 -10
15 0 8 5 15 10 15 6 0 10 -7 10 -15z m-3736 -10 c-4 -8 -10 -15 -15 -15 -5 0
-9 7 -9 15 0 8 7 15 15 15 9 0 12 -6 9 -15z m21328 -37 c-7 -7 -12 -8 -12 -2
0 14 12 26 19 19 2 -3 -1 -11 -7 -17z m-1191 -56 c-24 -34 -60 -67 -46 -42 21
38 47 70 56 70 6 0 1 -13 -10 -28z m1180 -15 c-8 -8 -11 -5 -11 9 0 27 14 41
18 19 2 -9 -1 -22 -7 -28z m-2308 -53 c55 -79 67 -121 33 -108 -13 5 -126 173
-126 188 0 3 8 6 18 6 10 -1 40 -35 75 -86z m137 71 c0 -8 5 -15 10 -15 6 0
10 -9 10 -20 0 -24 -22 -26 -44 -4 -23 22 -20 54 4 54 11 0 20 -7 20 -15z
m-25984 -19 c19 -14 19 -15 0 -22 -20 -8 -47 5 -54 24 -5 17 30 15 54 -2z
m-5041 -25 c-3 -6 -11 -11 -17 -11 -6 0 -6 6 2 15 14 17 26 13 15 -4z m30556
-44 c-12 -30 -32 -35 -51 -12 -12 15 -6 35 11 35 6 0 18 8 27 17 15 14 17 14
20 1 2 -8 -2 -27 -7 -41z m-18351 -5 c0 -47 -6 -66 -19 -58 -9 6 0 106 10 106
5 0 9 -22 9 -48z m20982 23 c-2 -14 -8 -28 -13 -31 -10 -6 -11 2 -3 34 9 30
22 28 16 -3z m-1726 -37 c43 -61 48 -83 17 -83 -16 0 -33 17 -62 60 -21 33
-37 63 -34 68 12 21 44 2 79 -45z m478 5 c-41 -55 -43 -58 -37 -34 3 11 9 21
14 21 5 0 9 6 9 13 0 15 20 37 33 37 4 0 -4 -17 -19 -37z m-1178 -48 c44 -62
55 -95 29 -95 -14 0 -23 11 -75 90 -60 92 -19 96 46 5z m-352 -13 c25 -38 48
-76 52 -85 10 -26 -32 -21 -51 6 -48 68 -75 114 -75 130 0 36 30 15 74 -51z
m890 24 c32 -43 34 -66 4 -66 -16 0 -30 12 -46 40 -37 65 -4 85 42 26z
m-22487 -56 c-2 -34 -5 -35 -29 -16 -23 17 -23 32 -1 45 24 13 32 5 30 -29z
m23059 -6 c-10 -14 -20 -23 -23 -21 -6 6 30 57 36 51 2 -2 -4 -15 -13 -30z
m-15406 -30 c0 -31 -2 -35 -15 -24 -8 7 -15 23 -15 36 0 15 6 24 15 24 11 0
15 -11 15 -36z m2658 -40 c-7 -16 -21 -30 -31 -32 -22 -4 -22 5 4 47 26 42 49
29 27 -15z m11402 26 c0 -11 -4 -20 -10 -20 -5 0 -10 9 -10 20 0 11 5 20 10
20 6 0 10 -9 10 -20z m-19310 1 c0 -6 -4 -13 -10 -16 -5 -3 -10 1 -10 9 0 9 5
16 10 16 6 0 10 -4 10 -9z m21907 -13 c-3 -8 -6 -5 -6 6 -1 11 2 17 5 13 3 -3
4 -12 1 -19z m-2819 -26 l30 -38 -28 -2 c-20 -2 -32 5 -45 24 -16 25 -15 54 4
54 5 0 23 -17 39 -38z m1532 29 c0 -5 -7 -14 -15 -21 -16 -14 -18 -10 -9 14 6
17 24 22 24 7z m1277 -78 c-3 -10 -5 -2 -5 17 0 19 2 27 5 18 2 -10 2 -26 0
-35z m-2425 20 c10 -9 18 -24 18 -35 0 -27 -35 -23 -54 7 -27 41 -1 61 36 28z
m-23263 -69 c-6 -7 -16 -11 -23 -8 -8 3 -16 -2 -19 -10 -7 -19 -27 -21 -27 -4
0 21 53 58 68 46 9 -8 9 -14 1 -24z m23115 27 c8 -13 -4 -41 -18 -41 -27 -1
-41 -20 -45 -62 -1 -5 -6 -8 -12 -8 -12 0 -2 89 13 108 12 14 54 16 62 3z
m-20144 -21 c0 -5 -9 -10 -20 -10 -11 0 -20 5 -20 10 0 6 9 10 20 10 11 0 20
-4 20 -10z m21343 -19 c-13 -11 -23 -24 -23 -29 0 -5 -7 -12 -15 -16 -8 -3
-15 -2 -15 3 0 14 48 61 62 61 7 -1 3 -9 -9 -19z m-13163 -32 c0 -6 -4 -7 -10
-4 -5 3 -10 11 -10 16 0 6 5 7 10 4 6 -3 10 -11 10 -16z m-8326 -51 c7 -12 6
-21 -3 -32 -21 -25 -31 -19 -31 20 0 37 14 42 34 12z m-1614 -13 c-7 -8 -17
-15 -22 -15 -6 0 -5 7 2 15 7 8 17 15 22 15 6 0 5 -7 -2 -15z m23030 8 c0 -5
-20 -30 -45 -58 -25 -27 -45 -44 -45 -37 0 7 16 28 35 48 19 19 35 39 35 44 0
6 5 10 10 10 6 0 10 -3 10 -7z m-16080 -22 c0 -5 -7 -14 -15 -21 -16 -14 -18
-10 -9 14 6 17 24 22 24 7z m-120 -66 c-7 -9 -15 -13 -18 -10 -3 2 1 11 8 20
7 9 15 13 18 10 3 -2 -1 -11 -8 -20z m-5213 -40 c-4 -8 -17 -15 -29 -15 l-23
1 24 20 c26 21 37 19 28 -6z m21303 -15 c0 -5 -7 -10 -15 -10 -8 0 -15 -8 -16
-17 0 -12 -2 -13 -6 -5 -5 14 14 42 28 42 5 0 9 -4 9 -10z m-27720 -30 c0 -9
-31 -30 -44 -30 -3 0 -6 9 -6 20 0 15 7 20 25 20 14 0 25 -4 25 -10z m7840
-30 c-6 -11 -15 -20 -20 -20 -14 0 -12 27 3 33 23 10 28 7 17 -13z m21400 10
c0 -5 -5 -10 -11 -10 -5 0 -7 5 -4 10 3 6 8 10 11 10 2 0 4 -4 4 -10z m-25455
-30 c-10 -11 -20 -18 -23 -15 -7 6 18 35 31 35 5 0 2 -9 -8 -20z m1795 -15 c0
-8 -4 -15 -10 -15 -5 0 -10 7 -10 15 0 8 5 15 10 15 6 0 10 -7 10 -15z m21030
-36 c0 -22 -5 -29 -20 -29 -21 0 -27 15 -10 25 6 3 10 15 10 26 0 11 5 17 10
14 6 -3 10 -19 10 -36z m177 -24 c18 -27 38 -56 44 -63 14 -18 7 -46 -13 -50
-22 -4 -113 130 -104 153 10 28 37 12 73 -40z m-26707 27 c0 -13 -31 -52 -41
-52 -6 0 -2 14 8 30 16 28 33 39 33 22z m13500 -10 c0 -12 -49 -56 -55 -50 -3
3 5 17 17 32 23 26 38 33 38 18z m-4188 -55 c-12 -13 -19 -27 -15 -32 5 -4 3
-5 -4 -2 -6 4 -13 1 -16 -5 -2 -7 -7 -10 -10 -7 -4 3 7 22 24 43 17 20 34 35
37 31 3 -3 -4 -16 -16 -28z m18200 11 c-7 -7 -12 -8 -12 -2 0 14 12 26 19 19
2 -3 -1 -11 -7 -17z m-18042 -31 c0 -13 -6 -32 -14 -42 -13 -18 -14 -18 -25 4
-10 19 -9 25 11 41 29 24 28 24 28 -3z m3210 3 c0 -5 -5 -10 -11 -10 -5 0 -7
5 -4 10 3 6 8 10 11 10 2 0 4 -4 4 -10z m14812 -12 c-7 -7 -12 -8 -12 -2 0 14
12 26 19 19 2 -3 -1 -11 -7 -17z m-14090 -20 c-7 -7 -12 -8 -12 -2 0 14 12 26
19 19 2 -3 -1 -11 -7 -17z m15652 -11 c-3 -8 -12 -18 -20 -21 -11 -4 -10 0 3
18 20 26 27 28 17 3z m-2584 -45 c-11 -23 -25 -42 -30 -42 -15 0 -13 6 16 51
32 51 40 46 14 -9z m-9420 3 c0 -5 -5 -3 -10 5 -5 8 -10 20 -10 25 0 6 5 3 10
-5 5 -8 10 -19 10 -25z m10420 31 c0 -3 -4 -8 -10 -11 -5 -3 -10 -1 -10 4 0 6
5 11 10 11 6 0 10 -2 10 -4z m-17732 -68 c-10 -47 -58 -108 -58 -74 0 24 30
86 41 86 5 0 9 7 9 15 0 8 4 15 9 15 5 0 5 -18 -1 -42z m17702 27 c-7 -8 -18
-15 -24 -15 -6 0 -2 7 8 15 25 19 32 19 16 0z m1572 -7 c-7 -7 -12 -8 -12 -2
0 14 12 26 19 19 2 -3 -1 -11 -7 -17z m-20212 -38 c0 -11 -4 -20 -10 -20 -5 0
-10 9 -10 20 0 11 5 20 10 20 6 0 10 -9 10 -20z m2488 -32 c2 12 8 22 13 22
14 0 10 -43 -6 -64 -14 -18 -15 -17 -30 19 -9 20 -13 45 -9 54 5 12 9 7 17
-19 9 -30 11 -32 15 -12z m16117 26 c-9 -9 -18 -14 -21 -11 -9 9 6 27 22 27
13 0 13 -2 -1 -16z m-19069 -8 c6 -16 -45 -88 -57 -80 -9 5 32 93 44 94 4 0
10 -7 13 -14z m18084 -4 c0 -5 -39 -39 -86 -78 -47 -38 -92 -75 -100 -82 -8
-8 -45 -31 -83 -52 -74 -40 -89 -32 -20 10 37 22 62 42 109 84 8 7 24 18 36
24 11 6 45 31 75 56 54 45 69 54 69 38z m952 -28 c-12 -8 -22 -22 -22 -30 0
-8 -4 -14 -10 -14 -5 0 -10 4 -10 10 0 12 41 50 54 50 6 0 0 -7 -12 -16z
m1580 -6 c-7 -7 -12 -8 -12 -2 0 14 12 26 19 19 2 -3 -1 -11 -7 -17z m-30137
-39 c-16 -30 -40 -47 -52 -35 -7 7 46 66 59 66 5 0 1 -14 -7 -31z m27895 -19
c0 -13 -7 -20 -18 -20 -26 0 -34 11 -21 27 17 20 39 16 39 -7z m-20656 -34
c-6 -16 -24 -23 -24 -8 0 10 22 33 27 28 2 -2 1 -11 -3 -20z m20488 7 c24 -22
23 -32 -4 -30 -22 1 -47 23 -48 40 0 13 33 7 52 -10z m749 -11 c-5 -10 -18
-25 -27 -33 -16 -12 -17 -12 -9 1 10 18 37 50 42 50 2 0 -1 -8 -6 -18z
m-11801 -6 c0 -25 -12 -46 -26 -46 -18 0 -19 46 -1 53 21 9 27 7 27 -7z
m-2300 -35 c0 -6 -4 -13 -10 -16 -5 -3 -10 1 -10 9 0 9 5 16 10 16 6 0 10 -4
10 -9z m14046 -29 c-4 -11 -14 -23 -22 -26 -12 -5 -12 -1 2 24 20 32 29 33 20
2z m-1360 -14 c11 -13 28 -35 37 -50 11 -18 26 -28 42 -28 22 0 24 -3 19 -30
-5 -20 0 -40 15 -65 22 -37 28 -75 12 -75 -5 0 -28 21 -50 46 -28 33 -46 44
-57 40 -14 -5 -16 -1 -11 28 4 28 -1 44 -25 81 -41 61 -26 103 18 53z m2954
18 c0 -9 -85 -58 -109 -62 -14 -3 -30 -9 -35 -15 -19 -18 -29 -9 -11 11 10 11
25 20 33 20 21 0 92 32 92 42 0 4 7 8 15 8 8 0 15 -2 15 -4z m-25220 -26 c0
-5 -7 -10 -15 -10 -8 0 -15 5 -15 10 0 6 7 10 15 10 8 0 15 -4 15 -10z m22822
-15 c6 -14 15 -25 20 -25 5 0 6 -4 3 -10 -12 -19 -41 -10 -58 19 -9 15 -14 31
-10 35 14 13 34 5 45 -19z m174 17 c18 -12 74 -100 74 -116 0 -9 -8 -16 -20
-16 -22 0 -105 114 -95 130 7 12 26 13 41 2z m-10776 -32 c0 -5 -4 -10 -10
-10 -5 0 -10 5 -10 10 0 6 5 10 10 10 6 0 10 -4 10 -10z m11360 -4 c0 -3 -4
-8 -10 -11 -5 -3 -10 -1 -10 4 0 6 5 11 10 11 6 0 10 -2 10 -4z m-1135 -15
c-6 -5 -21 -12 -35 -15 -24 -7 -24 -6 -6 8 21 17 57 23 41 7z m-13015 -66 c0
-19 -4 -35 -9 -35 -11 0 -21 38 -14 56 10 26 23 14 23 -21z m1590 25 c0 -5 -4
-10 -10 -10 -5 0 -10 5 -10 10 0 6 5 10 10 10 6 0 10 -4 10 -10z m12497 -25
c-17 -19 -32 -33 -35 -30 -8 7 39 65 53 65 8 0 1 -14 -18 -35z m1478 26 c-6
-4 -23 -13 -40 -19 -16 -5 -38 -13 -47 -17 -10 -4 -18 -3 -18 3 0 6 19 17 43
25 48 18 76 21 62 8z m-21040 -11 c-3 -5 -11 -10 -16 -10 -6 0 -7 5 -4 10 3 6
11 10 16 10 6 0 7 -4 4 -10z m2660 -47 c-12 -17 -20 -23 -23 -15 -4 14 28 56
36 47 3 -2 -3 -17 -13 -32z m28285 28 c0 -6 11 -22 25 -37 14 -15 23 -29 21
-32 -6 -6 -26 15 -49 51 -10 15 -13 27 -7 27 5 0 10 -4 10 -9z m-12720 -30 c0
-5 15 -15 33 -21 31 -12 32 -14 32 -69 0 -60 -6 -64 -51 -35 -14 9 -24 26 -24
39 0 12 -9 34 -21 49 -11 14 -17 30 -14 36 8 13 45 13 45 1z m-19657 -23 c-13
-12 -25 -19 -29 -15 -10 10 16 37 34 37 13 0 12 -4 -5 -22z m8227 12 c0 -5 -4
-10 -10 -10 -5 0 -10 5 -10 10 0 6 5 10 10 10 6 0 10 -4 10 -10z m14095 -27
c-12 -17 -20 -23 -23 -15 -4 14 28 56 36 47 3 -2 -3 -17 -13 -32z m-20919 0
c-10 -10 -19 5 -10 18 6 11 8 11 12 0 2 -7 1 -15 -2 -18z m1434 8 c0 -5 -7
-12 -16 -15 -24 -9 -28 -7 -14 9 14 17 30 20 30 6z m17229 -38 c36 -41 40 -63
12 -63 -23 0 -61 49 -61 79 0 30 13 26 49 -16z m12099 -17 c61 -41 52 -51 -13
-13 -30 17 -55 37 -55 45 0 14 1 14 68 -32z m-23698 15 c0 -11 -4 -23 -10 -26
-6 -4 -10 5 -10 19 0 14 5 26 10 26 6 0 10 -9 10 -19z m11952 7 c26 -22 60
-77 53 -88 -13 -21 -34 -9 -63 37 -36 56 -31 84 10 51z m463 -18 c-10 -11 -23
-20 -28 -20 -13 0 24 39 37 39 5 1 1 -8 -9 -19z m1405 10 c0 -5 -5 -10 -11
-10 -5 0 -7 5 -4 10 3 6 8 10 11 10 2 0 4 -4 4 -10z m-2742 -40 c21 -31 32
-39 49 -35 20 5 22 2 16 -26 -4 -22 0 -38 16 -59 28 -39 27 -60 -4 -60 -15 0
-31 9 -41 25 -9 14 -26 25 -38 26 -11 0 -16 3 -9 5 16 7 2 52 -31 100 -31 46
-33 64 -6 64 12 0 31 -16 48 -40z m-10931 14 c3 -8 -1 -22 -10 -31 -13 -14
-16 -13 -22 6 -11 35 19 59 32 25z m-4230 -36 c-2 -7 -10 -12 -16 -10 -6 1
-11 -8 -11 -20 -1 -21 -2 -21 -11 -5 -8 13 -7 22 1 33 15 17 43 19 37 2z
m-6962 -18 c3 -6 -1 -7 -9 -4 -18 7 -21 14 -7 14 6 0 13 -4 16 -10z m8365 -10
c0 -11 -7 -20 -15 -20 -8 0 -15 9 -15 20 0 11 7 20 15 20 8 0 15 -9 15 -20z
m13607 -7 c7 -10 25 -35 38 -55 22 -34 28 -37 56 -31 30 6 31 5 20 -16 -15
-28 -54 -53 -72 -46 -15 6 -89 134 -89 154 0 17 31 13 47 -6z m587 -43 c26
-39 26 -70 0 -70 -19 0 -74 78 -67 96 10 26 40 14 67 -26z m2236 16 c0 -3 -4
-8 -10 -11 -5 -3 -10 -1 -10 4 0 6 5 11 10 11 6 0 10 -2 10 -4z m-27290 -14
c0 -14 -39 -46 -47 -39 -3 4 2 16 12 27 19 21 35 26 35 12z m36659 -41 c-7 -2
-15 1 -17 8 -2 6 -11 11 -20 11 -15 0 -15 2 -2 10 10 6 20 4 33 -8 13 -12 15
-18 6 -21z m-33472 13 c-3 -3 -12 -4 -19 -1 -8 3 -5 6 6 6 11 1 17 -2 13 -5z
m21145 -11 c8 -10 27 -39 42 -64 22 -39 24 -48 12 -58 -11 -9 -20 -4 -44 26
-37 47 -63 98 -55 107 11 11 30 6 45 -11z m-10498 -31 c-7 -32 -24 -35 -24 -3
0 16 20 44 27 37 2 -1 0 -17 -3 -34z m23146 18 c0 -5 -5 -10 -11 -10 -5 0 -7
5 -4 10 3 6 8 10 11 10 2 0 4 -4 4 -10z m-35417 -30 c-3 -11 -9 -20 -14 -20
-5 0 -9 9 -9 20 0 11 6 20 14 20 9 0 12 -7 9 -20z m11211 -6 c4 -9 4 -19 2
-21 -8 -8 -26 8 -26 23 0 19 16 18 24 -2z m12182 -56 c26 -40 51 -78 56 -85 6
-8 2 -15 -12 -23 -28 -15 -41 -4 -91 80 -43 74 -49 100 -20 100 13 0 35 -24
67 -72z m-13560 37 c1 -8 -2 -17 -7 -21 -5 -3 -9 7 -9 22 0 27 12 26 16 -1z
m14114 -56 c36 -51 45 -58 66 -53 13 3 24 4 24 2 0 -15 -41 -48 -66 -53 -22
-5 -26 -4 -14 4 13 10 13 13 -1 24 -17 14 -73 94 -82 119 -3 9 -3 18 0 21 11
12 33 -7 73 -64z m-741 4 c-15 -18 -34 -17 -50 3 -11 14 -10 18 6 30 16 12 21
12 37 -3 14 -12 15 -19 7 -30z m-284 27 c3 -6 -1 -13 -10 -16 -19 -8 -30 0
-20 15 8 14 22 14 30 1z m90 2 c6 -4 23 -29 39 -55 28 -49 29 -77 2 -77 -17 0
-86 101 -86 125 0 16 27 20 45 7z m11813 -15 c25 -20 11 -24 -24 -7 -19 10
-47 16 -62 14 -21 -3 -23 -2 -12 6 17 11 78 3 98 -13z m-22418 -9 c0 -20 -24
-78 -32 -78 -11 0 -10 33 2 64 10 26 30 36 30 14z m11366 -15 c20 -27 17 -53
-6 -53 -20 0 -40 27 -40 54 0 21 30 20 46 -1z m-11519 -35 c-3 -8 -6 -5 -6 6
-1 11 2 17 5 13 3 -3 4 -12 1 -19z m9741 -8 c23 -10 42 -17 42 -14 0 3 15 -3
33 -12 17 -9 39 -20 48 -25 17 -8 125 -26 321 -55 67 -9 115 -21 112 -26 -3
-5 -22 -7 -43 -4 -303 45 -367 57 -436 86 -11 5 -29 11 -40 13 -11 3 -43 12
-72 20 -44 13 -58 13 -90 2 -21 -7 -52 -15 -69 -18 -17 -3 -47 -11 -65 -19
-19 -8 -59 -23 -89 -32 -30 -10 -65 -22 -77 -27 -56 -23 -72 -28 -128 -44 -64
-18 -75 -19 -76 -8 0 3 53 23 118 44 65 20 183 60 263 87 80 28 159 51 175 51
17 0 49 -8 73 -19z m3621 -34 c-9 -8 -10 -7 -5 7 3 10 7 24 7 30 1 7 3 4 6 -7
3 -10 -1 -23 -8 -30z m-22459 25 c0 -14 -28 -33 -41 -29 -7 2 -13 12 -15 21
-2 13 5 17 27 17 16 0 29 -4 29 -9z m31380 -11 c35 -18 60 -45 60 -66 0 -4
-12 4 -27 18 -45 42 -70 51 -105 39 -43 -15 -49 -5 -7 13 19 9 35 15 37 16 1
0 20 -9 42 -20z m-34300 1 c0 -6 -4 -13 -10 -16 -5 -3 -10 1 -10 9 0 9 5 16
10 16 6 0 10 -4 10 -9z m11495 -22 c4 -11 4 -23 1 -27 -10 -9 -39 25 -32 37
11 17 24 13 31 -10z m23200 -37 c15 -13 24 -26 20 -30 -3 -4 -11 0 -16 9 -5 9
-29 23 -53 30 -25 7 -43 16 -41 20 8 12 63 -6 90 -29z m-12155 21 c-1 -15 -30
-46 -37 -40 -3 4 2 16 12 27 19 21 25 24 25 13z m-14300 -47 c0 -3 -4 -8 -10
-11 -5 -3 -10 -1 -10 4 0 6 5 11 10 11 6 0 10 -2 10 -4z m14220 -11 c-14 -8
-47 -14 -75 -13 l-50 0 54 9 c30 5 57 12 60 14 2 3 11 5 20 5 11 -1 7 -6 -9
-15z m-13975 -25 c3 -5 2 -10 -4 -10 -5 0 -13 5 -16 10 -3 6 -2 10 4 10 5 0
13 -4 16 -10z m2845 -16 c0 -7 -9 -12 -20 -11 -12 1 -20 8 -20 18 0 12 6 16
20 12 11 -3 20 -11 20 -19z m23396 -11 c-11 -11 -17 4 -9 23 7 18 8 18 11 1 2
-10 1 -21 -2 -24z m-12189 12 c8 -22 -6 -33 -17 -15 -13 20 -12 30 0 30 6 0
13 -7 17 -15z m11888 -11 c31 -20 52 -71 36 -87 -8 -8 -11 -5 -11 14 0 30 -58
79 -94 79 -15 0 -26 5 -26 11 0 15 65 3 95 -17z m-32735 7 c0 -11 -29 -35 -35
-29 -10 9 7 38 21 38 8 0 14 -4 14 -9z m19420 -9 c0 -5 -19 -15 -42 -22 -24
-7 -47 -17 -52 -22 -6 -4 -19 -8 -29 -8 -11 0 -59 -18 -108 -40 -49 -22 -98
-40 -109 -40 -11 0 -20 -4 -20 -10 0 -5 -8 -10 -17 -10 -19 0 -79 -18 -105
-31 -23 -12 -31 -11 -23 0 3 5 36 19 73 32 37 12 85 29 107 39 128 55 197 82
250 99 70 23 75 24 75 13z m-15214 -17 c11 -27 -1 -39 -19 -21 -17 17 -15 36
4 36 5 0 12 -7 15 -15z m19415 -8 c-10 -9 -11 -8 -5 6 3 10 9 15 12 12 3 -3 0
-11 -7 -18z m-12403 -17 c3 -21 2 -22 -12 -11 -19 16 -21 44 -3 39 6 -3 14
-15 15 -28z m-4998 11 c0 -14 -18 -23 -30 -16 -6 4 -8 11 -5 16 8 12 35 12 35
0z m28204 -7 c9 -24 7 -27 -9 -10 -17 17 -19 26 -6 26 5 0 12 -7 15 -16z
m-10824 -29 c-7 -9 -15 -13 -18 -10 -3 2 1 11 8 20 7 9 15 13 18 10 3 -2 -1
-11 -8 -20z m-15270 -10 c0 -8 -4 -15 -10 -15 -5 0 -10 7 -10 15 0 8 5 15 10
15 6 0 10 -7 10 -15z m25850 -48 c0 -8 -35 10 -62 32 -10 8 -18 18 -18 23 0
11 79 -44 80 -55z m-13380 -74 c0 -38 -29 -25 -58 28 -16 28 -23 52 -19 63 6
15 12 12 42 -24 19 -23 35 -53 35 -67z m2733 58 c-17 -15 -46 -33 -64 -41 -19
-7 -52 -21 -75 -31 -22 -11 -50 -19 -61 -19 -11 0 -37 -7 -56 -15 -35 -14 -86
-21 -75 -9 3 3 44 16 90 29 120 34 147 45 208 86 63 42 78 42 33 0z m-2573 -5
c0 -8 7 -19 15 -26 23 -19 48 -78 41 -96 -9 -23 -28 -5 -71 66 -40 67 -41 67
-17 73 22 5 32 -1 32 -17z m11700 14 c0 -5 -6 -10 -14 -10 -8 0 -18 5 -21 10
-3 6 3 10 14 10 12 0 21 -4 21 -10z m60 0 c-20 -13 -53 -13 -45 0 3 6 18 10
33 10 21 0 24 -2 12 -10z m1490 -5 c11 -13 10 -14 -4 -9 -9 3 -16 10 -16 15 0
13 6 11 20 -6z m-26750 -4 c0 -5 -7 -14 -15 -21 -13 -10 -15 -9 -15 9 0 12 6
21 15 21 8 0 15 -4 15 -9z m-8590 -15 c0 -7 -7 -19 -15 -26 -13 -11 -15 -8
-15 14 0 16 5 26 15 26 8 0 15 -6 15 -14z m10816 -56 c-8 -28 -25 -65 -37 -82
-22 -30 -23 -30 -30 -10 -9 24 15 104 37 123 11 9 14 9 14 0 0 -22 20 0 21 22
0 12 3 17 5 10 3 -6 -2 -35 -10 -63z m11961 54 c-3 -3 -12 -4 -19 -1 -8 3 -5
6 6 6 11 1 17 -2 13 -5z m12613 -19 c7 -8 8 -15 2 -15 -5 0 -15 7 -22 15 -7 8
-8 15 -2 15 5 0 15 -7 22 -15z m-15370 -22 c0 -9 -49 -33 -67 -33 -23 0 -14
18 15 28 34 13 52 14 52 5z m2600 -33 c-14 -10 -27 -17 -29 -14 -6 5 31 33 44
33 6 1 -1 -8 -15 -19z m-11584 -38 c-23 -23 -33 -6 -10 19 12 13 20 16 22 9 3
-7 -3 -19 -12 -28z m8880 20 c-3 -4 -28 -14 -56 -22 -28 -8 -53 -18 -56 -22
-7 -11 -34 -10 -34 2 0 6 8 10 18 10 10 0 22 3 26 8 19 19 113 42 102 24z
m4159 -11 c10 -6 15 -7 50 -10 18 -1 19 -2 3 -12 -12 -7 -24 -6 -39 2 -40 21
-139 16 -187 -9 -26 -13 -42 -18 -40 -10 3 7 29 22 59 35 52 21 122 23 154 4z
m245 1 c0 -10 -92 -31 -104 -24 -11 6 50 29 82 31 12 0 22 -2 22 -7z m-21354
-29 c-10 -10 -19 5 -10 18 6 11 8 11 12 0 2 -7 1 -15 -2 -18z m21214 7 c0 -5
-7 -10 -16 -10 -8 0 -12 5 -9 10 3 6 10 10 16 10 5 0 9 -4 9 -10z m10548 -18
c2 -7 -2 -10 -12 -6 -9 3 -16 11 -16 16 0 13 23 5 28 -10z m-22001 -31 c-6
-17 -14 -28 -19 -25 -8 5 12 54 23 54 4 0 2 -13 -4 -29z m7005 7 c-7 -7 -12
-8 -12 -2 0 14 12 26 19 19 2 -3 -1 -11 -7 -17z m-9984 0 c-2 -6 -10 -14 -16
-16 -7 -2 -10 2 -6 12 7 18 28 22 22 4z m12709 6 c-3 -3 -12 -4 -19 -1 -8 3
-5 6 6 6 11 1 17 -2 13 -5z m-2747 -14 c0 -5 -5 -10 -11 -10 -6 0 -22 -9 -36
-20 -28 -22 -43 -25 -43 -10 0 9 66 49 83 50 4 0 7 -4 7 -10z m-9530 -10 c0
-5 -4 -10 -10 -10 -5 0 -10 5 -10 10 0 6 5 10 10 10 6 0 10 -4 10 -10z m13650
6 c0 -3 -4 -8 -10 -11 -5 -3 -10 -1 -10 4 0 6 5 11 10 11 6 0 10 -2 10 -4z
m10605 -6 c3 -5 -1 -10 -9 -10 -9 0 -16 5 -16 10 0 6 4 10 9 10 6 0 13 -4 16
-10z m-10644 -28 c-12 -23 -40 -47 -46 -40 -5 5 43 58 52 58 2 0 -1 -8 -6 -18z
m-1916 -23 c14 -18 24 -38 21 -45 -3 -7 2 -17 11 -22 24 -14 -2 -25 -27 -12
-19 10 -60 78 -60 100 0 20 29 9 55 -21z m-2310 -8 c-14 -12 -73 -25 -60 -13
6 6 19 12 30 15 34 8 40 8 30 -2z m15622 -7 c-15 -8 -33 -12 -39 -8 -14 9 15
22 47 23 16 0 15 -2 -8 -15z m-385 -8 c7 4 8 2 4 -4 -4 -6 -13 -9 -21 -6 -8 4
-12 11 -8 17 5 8 8 7 11 -1 2 -7 9 -9 14 -6z m-26156 -23 c-10 -10 -19 5 -10
18 6 11 8 11 12 0 2 -7 1 -15 -2 -18z m2574 13 c0 -17 -39 -66 -40 -49 0 18
22 63 32 63 4 0 8 -6 8 -14z m6995 -57 c47 -72 49 -73 76 -59 27 15 32 9 19
-24 -7 -20 -6 -36 5 -63 17 -40 20 -93 5 -93 -5 0 -24 15 -41 34 -20 22 -37
32 -47 29 -12 -5 -14 -1 -9 27 6 26 -1 46 -33 107 -65 123 -48 152 25 42z
m1255 61 c0 -5 -5 -10 -11 -10 -5 0 -7 5 -4 10 3 6 8 10 11 10 2 0 4 -4 4 -10z
m15364 -16 c3 -8 2 -12 -4 -9 -6 3 -10 10 -10 16 0 14 7 11 14 -7z m-11170
-61 c-61 -60 -94 -89 -94 -81 0 9 142 149 147 144 3 -2 -21 -31 -53 -63z
m10522 20 c27 -17 31 -33 9 -33 -8 0 -15 4 -15 10 0 17 -54 38 -85 33 -24 -4
-27 -2 -15 6 18 14 74 5 106 -16z m313 13 c-12 -10 -79 -16 -79 -6 0 5 19 10
42 10 23 0 39 -2 37 -4z m-25904 -36 c-9 -16 -20 -30 -25 -30 -14 0 -12 12 6
38 23 33 37 27 19 -8z m65 20 c0 -5 -4 -10 -10 -10 -5 0 -10 5 -10 10 0 6 5
10 10 10 6 0 10 -4 10 -10z m25902 -30 c10 -8 18 -18 18 -23 0 -11 -68 45 -69
57 -1 8 7 3 51 -34z m-157 20 c-3 -5 -16 -10 -28 -10 -18 0 -19 2 -7 10 20 13
43 13 35 0z m-15558 -93 c22 -34 43 -69 46 -77 4 -8 27 -46 52 -85 73 -114 91
-154 78 -173 -24 -39 -35 -25 -204 266 -45 77 -58 119 -43 135 12 12 31 -6 71
-66z m2583 38 c16 -20 19 -87 3 -92 -11 -4 -73 70 -73 88 0 7 21 15 46 18 6 0
17 -6 24 -14z m367 -17 c11 -13 29 -42 40 -65 l20 -43 -23 0 c-37 0 -100 101
-77 123 11 11 18 8 40 -15z m-17003 -7 c3 -5 -1 -11 -9 -15 -15 -6 -29 7 -18
18 9 9 21 8 27 -3z m17201 -30 c-7 -25 -33 -28 -42 -6 -6 18 28 48 40 35 5 -4
6 -17 2 -29z m-25524 -4 c-8 -8 -11 -7 -11 4 0 9 3 19 7 23 4 4 9 2 11 -4 3
-7 -1 -17 -7 -23z m24799 13 c0 -11 5 -29 11 -39 12 -18 5 -71 -9 -71 -6 0
-48 65 -60 93 -6 13 19 37 39 37 12 0 19 -7 19 -20z m-11432 -14 c3 -12 -1
-17 -10 -14 -7 3 -15 13 -16 22 -3 12 1 17 10 14 7 -3 15 -13 16 -22z m2082 5
c0 -6 -4 -13 -10 -16 -5 -3 -10 1 -10 9 0 9 5 16 10 16 6 0 10 -4 10 -9z
m11607 -39 c-20 -20 -37 -31 -37 -24 0 15 61 74 69 66 3 -2 -12 -21 -32 -42z
m-2637 17 c0 -5 -7 -9 -15 -9 -15 0 -20 12 -9 23 8 8 24 -1 24 -14z m13700 6
c-7 -9 -15 -13 -19 -10 -3 3 1 10 9 15 21 14 24 12 10 -5z m-13445 -125 c-11
-17 -34 -11 -46 13 -6 12 -21 32 -32 44 -25 28 -17 51 20 55 26 3 29 -1 46
-50 10 -29 15 -57 12 -62z m-10480 100 c3 -5 1 -10 -4 -10 -6 0 -11 5 -11 10
0 6 2 10 4 10 3 0 8 -4 11 -10z m-881 -16 c5 -14 4 -15 -9 -4 -17 14 -19 20
-6 20 5 0 12 -7 15 -16z m8743 -44 c9 -16 21 -30 25 -30 4 0 8 -5 8 -10 0 -6
11 -27 24 -48 13 -21 27 -52 31 -70 4 -22 12 -32 25 -32 12 0 22 -12 31 -37 6
-21 20 -49 30 -62 21 -27 24 -47 9 -56 -17 -11 -41 16 -71 79 -16 33 -32 62
-37 65 -14 9 -102 161 -102 176 0 8 -4 17 -10 20 -15 9 -12 35 4 35 8 0 23
-13 33 -30z m2216 11 c5 -22 -1 -33 -14 -25 -12 7 -12 44 0 44 5 0 11 -9 14
-19z m14970 -22 c46 -45 23 -38 -33 10 -19 17 -29 30 -22 31 7 0 32 -19 55
-41z m-12273 21 c0 -15 -38 -32 -45 -20 -5 8 17 23 43 29 1 1 2 -3 2 -9z
m-2106 -25 c6 -10 26 -43 44 -71 35 -58 39 -79 18 -87 -18 -7 -34 12 -75 86
-21 38 -30 65 -26 78 8 23 24 21 39 -6z m13018 3 c-6 -6 -15 -8 -19 -4 -4 4
-1 11 7 16 19 12 27 3 12 -12z m-15603 -35 c45 -52 50 -86 15 -91 -17 -2 -27
9 -51 55 -28 54 -33 83 -13 83 5 0 27 -21 49 -47z m576 -20 c11 -21 33 -58 50
-83 75 -110 86 -139 61 -159 -17 -14 -25 -5 -93 108 -69 114 -96 170 -89 187
9 22 46 -6 71 -53z m183 -3 c23 -32 42 -62 42 -65 0 -4 8 -19 19 -33 37 -53
64 -108 70 -142 5 -30 10 -34 36 -35 24 0 31 -5 33 -25 2 -14 14 -49 28 -78
27 -60 30 -82 10 -82 -14 0 -76 82 -76 100 0 5 -9 14 -20 20 -15 8 -24 6 -40
-10 -21 -21 -24 -31 -20 -65 2 -23 39 -97 51 -105 12 -8 -1 -50 -16 -50 -7 0
-34 29 -59 64 -25 35 -52 66 -61 69 -15 6 -20 44 -9 83 5 19 11 21 43 17 21
-3 48 0 61 7 33 18 22 54 -66 199 -94 158 -94 158 -94 176 0 31 27 13 68 -45z
m-1338 40 c0 -5 -2 -10 -4 -10 -3 0 -8 5 -11 10 -3 6 -1 10 4 10 6 0 11 -4 11
-10z m2718 -8 c2 -7 -6 -12 -17 -12 -21 0 -27 11 -14 24 9 9 26 2 31 -12z
m13417 9 c-16 -14 -105 -44 -111 -38 -13 12 24 36 62 40 21 2 43 4 49 5 5 1 5
-1 0 -7z m-25289 -38 c-10 -10 -19 5 -10 18 6 11 8 11 12 0 2 -7 1 -15 -2 -18z
m-706 2 c0 -8 -6 -15 -14 -15 -17 0 -28 14 -19 24 12 12 33 6 33 -9z m2236
-53 c-24 -25 -29 -8 -9 33 l18 38 3 -28 c2 -16 -3 -34 -12 -43z m10667 -3 c29
-55 31 -94 5 -84 -21 8 -68 90 -68 119 0 45 30 28 63 -35z m2066 47 c-2 -2
-18 -7 -34 -11 l-30 -6 30 14 c27 13 45 14 34 3z m-13995 -11 c-6 -16 -24 -21
-24 -7 0 11 11 22 21 22 5 0 6 -7 3 -15z m11730 -20 c3 -8 3 -22 0 -30 -8 -21
-34 0 -34 26 0 23 25 25 34 4z m2171 5 c3 -5 -3 -10 -15 -10 -12 0 -18 5 -15
10 3 6 10 10 15 10 5 0 12 -4 15 -10z m-1595 -21 c11 -20 -1 -49 -21 -49 -14
0 -41 48 -34 60 11 17 44 11 55 -11z m-1843 -44 c18 -28 38 -56 44 -63 13 -15
1 -78 -12 -65 -18 18 -82 129 -90 156 -13 46 21 30 58 -28z m-8612 35 c3 -5 1
-10 -4 -10 -6 0 -11 5 -11 10 0 6 2 10 4 10 3 0 8 -4 11 -10z m-9005 -10 c0
-5 -4 -10 -10 -10 -5 0 -10 5 -10 10 0 6 5 10 10 10 6 0 10 -4 10 -10z m20783
-7 c-7 -2 -19 -2 -25 0 -7 3 -2 5 12 5 14 0 19 -2 13 -5z m-12353 -13 c0 -5
-5 -10 -11 -10 -5 0 -7 5 -4 10 3 6 8 10 11 10 2 0 4 -4 4 -10z m12287 4 c-3
-3 -12 -4 -19 -1 -8 3 -5 6 6 6 11 1 17 -2 13 -5z m-57 -21 c3 -3 -6 -4 -20
-2 -14 2 -31 0 -37 -4 -13 -8 -18 5 -7 16 7 6 54 -1 64 -10z m-11590 -3 c0 -5
-4 -10 -9 -10 -6 0 -13 5 -16 10 -3 6 1 10 9 10 9 0 16 -4 16 -10z m6923 -51
c-6 -6 -7 3 -4 23 4 28 6 29 9 9 2 -13 0 -27 -5 -32z m4494 45 c-3 -3 -12 -4
-19 -1 -8 3 -5 6 6 6 11 1 17 -2 13 -5z m50 0 c-3 -3 -12 -4 -19 -1 -8 3 -5 6
6 6 11 1 17 -2 13 -5z m-1922 -76 c50 -70 91 -151 98 -190 10 -67 -18 -44 -85
70 -73 120 -80 136 -72 156 8 21 25 11 59 -36z m1305 3 c0 -23 -19 -41 -36
-34 -17 6 -18 50 -1 56 19 7 37 -4 37 -22z m380 15 c0 -2 -7 -7 -16 -10 -8 -3
-12 -2 -9 4 6 10 25 14 25 6z m-3916 -32 c11 -28 6 -64 -7 -64 -14 0 -37 40
-37 65 0 20 36 19 44 -1z m-411 -14 c-10 -11 -19 -20 -21 -20 -1 0 2 9 8 20 6
11 15 20 20 20 6 0 2 -9 -7 -20z m3802 -40 c8 -26 -1 -40 -26 -40 -26 0 -47
44 -29 64 15 19 46 6 55 -24z m13610 30 c3 -5 1 -10 -4 -10 -6 0 -11 5 -11 10
0 6 2 10 4 10 3 0 8 -4 11 -10z m-23470 -20 c-20 -23 -29 -21 -19 4 3 9 13 16
22 16 13 0 12 -3 -3 -20z m7229 -39 c-9 -10 -26 18 -18 30 5 9 9 8 14 -7 4
-10 6 -21 4 -23z m476 19 c0 -5 -4 -10 -10 -10 -5 0 -10 5 -10 10 0 6 5 10 10
10 6 0 10 -4 10 -10z m15510 -10 c0 -5 -4 -10 -9 -10 -6 0 -13 5 -16 10 -3 6
1 10 9 10 9 0 16 -4 16 -10z m-15909 -62 c47 -98 64 -121 87 -113 6 2 12 1 12
-3 0 -10 -60 -72 -70 -72 -4 0 -12 15 -15 32 -4 18 -18 49 -31 69 -40 63 -56
111 -42 121 25 16 39 7 59 -34z m15556 36 c-3 -3 -12 -4 -19 -1 -8 3 -5 6 6 6
11 1 17 -2 13 -5z m-13883 -39 c8 -19 30 -59 49 -88 18 -28 45 -71 60 -94 27
-42 34 -77 19 -87 -16 -9 -31 10 -101 128 -79 134 -86 161 -44 175 2 1 9 -15
17 -34z m13533 -3 c3 -9 13 -25 21 -35 8 -9 13 -19 10 -22 -8 -8 -89 76 -83
86 8 12 44 -8 52 -29z m-27607 14 c0 -21 -36 -103 -49 -110 -19 -12 -12 41 10
84 21 40 39 52 39 26z m12235 -75 c-8 -26 -31 -27 -45 -2 -7 15 -6 24 6 36 15
14 19 15 31 2 9 -9 12 -23 8 -36z m-9765 29 c0 -5 -5 -10 -11 -10 -5 0 -7 5
-4 10 3 6 8 10 11 10 2 0 4 -4 4 -10z m10687 -12 c16 -15 23 -33 23 -60 0 -46
-12 -43 -40 12 -20 39 -26 70 -13 70 4 0 17 -10 30 -22z m15053 6 c0 -2 -9 -4
-20 -4 -11 0 -20 4 -20 9 0 5 9 7 20 4 11 -3 20 -7 20 -9z m-275 -84 c13 -6
15 -9 5 -9 -8 0 -22 4 -30 9 -18 12 -2 12 25 0z m-13920 -84 c53 -89 26 -139
-29 -55 -30 44 -43 97 -31 126 8 20 3 26 60 -71z m-13475 55 c0 -6 -4 -13 -10
-16 -5 -3 -10 1 -10 9 0 9 5 16 10 16 6 0 10 -4 10 -9z m-2977 -32 c-4 -13 -9
-17 -16 -10 -12 12 -1 45 12 37 5 -3 7 -15 4 -27z m13997 21 c0 -5 -5 -10 -11
-10 -5 0 -7 5 -4 10 3 6 8 10 11 10 2 0 4 -4 4 -10z m-6804 -76 c-9 -34 -28
-31 -20 4 3 15 8 34 11 42 9 23 16 -16 9 -46z m6626 26 c0 -11 1 -25 2 -32 1
-6 -5 -13 -11 -15 -9 -3 -13 7 -13 31 0 37 19 51 22 16z m16368 0 c0 -5 -2
-10 -4 -10 -3 0 -8 5 -11 10 -3 6 -1 10 4 10 6 0 11 -4 11 -10z m-14480 -15
c0 -8 4 -15 10 -15 5 0 12 -11 16 -24 3 -14 14 -32 24 -41 20 -18 16 -55 -6
-55 -17 0 -74 98 -74 128 0 13 6 22 15 22 8 0 15 -7 15 -15z m604 -50 c19 -27
45 -71 58 -97 20 -40 29 -48 66 -58 l43 -11 -37 -34 c-20 -19 -42 -35 -48 -35
-24 1 -66 49 -66 77 0 16 -15 51 -33 78 -79 118 -63 194 17 80z m-7544 21 c0
-11 -19 -15 -25 -6 -3 5 1 10 9 10 9 0 16 -2 16 -4z m6810 -56 c23 -44 27 -84
8 -78 -20 7 -58 69 -58 94 0 37 27 29 50 -16z m15806 -12 c3 -5 4 -12 1 -15
-7 -6 -52 27 -66 49 -9 14 -5 14 24 -3 19 -12 38 -25 41 -31z m-25586 -9 c0
-10 -4 -19 -9 -19 -12 0 -23 29 -15 41 8 14 24 0 24 -22z m10344 10 c14 -11
26 -24 26 -29 0 -24 49 -80 78 -90 32 -11 44 -30 19 -30 -7 0 -18 -9 -25 -20
-16 -26 -26 -25 -68 8 -24 19 -34 35 -34 54 0 15 -9 42 -20 60 -21 34 -26 68
-11 68 4 0 20 -9 35 -21z m15019 -39 c10 -16 14 -30 8 -30 -10 0 -41 39 -41
52 0 17 17 6 33 -22z m283 -17 c-6 -6 -46 20 -46 30 0 4 11 0 25 -9 14 -9 24
-19 21 -21z m-25717 -4 c-9 -5 -15 -4 -18 2 -2 6 3 15 10 20 9 5 15 4 18 -2 2
-6 -3 -15 -10 -20z m10255 15 c9 -3 16 -11 16 -16 0 -13 27 -35 57 -48 13 -5
22 -17 21 -27 -3 -44 4 -73 27 -107 27 -41 33 -86 11 -86 -12 0 -50 50 -65 85
-8 20 -56 80 -83 106 -23 21 -26 31 -21 62 6 38 10 41 37 31z m-9024 -39 c0
-8 -4 -15 -9 -15 -13 0 -22 16 -14 24 11 11 23 6 23 -9z m1890 -5 c0 -19 -43
-145 -55 -163 -28 -41 -29 18 -3 121 7 29 15 41 24 38 8 -3 14 -1 14 4 0 6 5
10 10 10 6 0 10 -5 10 -10z m-3110 -27 c-1 -16 -29 -45 -40 -41 -6 2 -5 11 5
26 16 21 35 30 35 15z m25034 -73 c36 -55 33 -62 -9 -16 -19 21 -32 43 -29 47
8 13 9 12 38 -31z m-18012 -12 c-17 -17 -15 -59 5 -73 15 -11 15 -15 -3 -50
-24 -50 -40 -54 -48 -14 -4 19 -13 33 -26 36 -28 7 -29 73 -2 73 11 0 27 9 37
20 10 11 25 20 34 20 12 0 12 -3 3 -12z m1272 -20 c-10 -16 -22 -7 -17 13 4
15 8 17 14 8 4 -7 5 -17 3 -21z m-757 -10 c33 -38 73 -119 73 -149 0 -44 -17
-43 -39 3 -11 24 -34 68 -50 98 -28 50 -31 70 -12 70 4 0 17 -10 28 -22z m567
-20 c11 -41 8 -52 -9 -38 -16 13 -21 60 -6 60 5 0 11 -10 15 -22z m17461 -6
c-3 -3 -11 0 -18 7 -9 10 -8 11 6 5 10 -3 15 -9 12 -12z m-24925 -68 c0 -18
-5 -36 -11 -40 -8 -4 -8 -9 0 -17 19 -19 12 -45 -19 -79 -29 -33 -29 -33 -30
-8 0 14 7 38 15 54 20 37 19 71 -2 106 -14 25 -15 31 -3 45 13 16 16 15 32 -5
10 -12 18 -37 18 -56z m9116 -6 c-9 -17 -16 -42 -16 -55 0 -12 -4 -23 -9 -23
-5 0 -5 14 -1 33 28 109 32 118 37 95 3 -10 -3 -32 -11 -50z m15019 52 c3 -5
1 -10 -4 -10 -6 0 -11 5 -11 10 0 6 2 10 4 10 3 0 8 -4 11 -10z m-22720 -9 c3
-5 1 -12 -5 -16 -5 -3 -10 1 -10 9 0 18 6 21 15 7z m-56 -52 c-13 -26 -23 -18
-14 10 3 12 11 19 16 16 5 -4 5 -14 -2 -26z m23141 0 c0 -18 -2 -19 -15 -9
-15 12 -12 30 6 30 5 0 9 -10 9 -21z m-16942 -14 c13 -29 16 -95 5 -95 -17 0
-30 16 -41 47 -20 60 12 102 36 48z m16477 -15 c3 -5 -1 -10 -9 -10 -9 0 -16
5 -16 10 0 6 4 10 9 10 6 0 13 -4 16 -10z m155 -10 c12 -8 11 -10 -7 -10 -13
0 -23 5 -23 10 0 13 11 13 30 0z m197 4 c-3 -3 -12 -4 -19 -1 -8 3 -5 6 6 6
11 1 17 -2 13 -5z m-17577 -69 c0 -14 -4 -25 -10 -25 -5 0 -10 4 -10 9 0 5 -3
16 -6 25 -4 11 -1 16 10 16 10 0 16 -9 16 -25z m-176 -2 c9 -23 -12 -43 -24
-23 -5 8 -10 21 -10 28 0 18 27 15 34 -5z m402 -10 c25 -33 11 -92 -13 -60
-14 17 -24 63 -16 71 10 9 15 8 29 -11z m2034 -13 c-6 -11 -12 -20 -14 -20 -2
0 -2 9 1 20 3 11 9 20 15 20 5 0 4 -9 -2 -20z m-7290 0 c0 -16 -33 -80 -42
-80 -13 0 -9 30 9 61 17 29 33 38 33 19z m4371 -74 c-6 -25 -6 -36 1 -36 6 0
8 -3 4 -7 -4 -5 -25 -8 -46 -9 l-39 -1 14 27 c8 15 25 35 39 44 15 9 27 24 27
34 1 16 2 16 6 0 2 -9 0 -33 -6 -52z m363 -21 c3 -8 1 -15 -4 -15 -6 0 -10 7
-10 15 0 8 2 15 4 15 2 0 6 -7 10 -15z m-6019 -27 c-7 -24 -32 -48 -48 -48 -5
0 -3 10 5 23 8 12 18 28 22 35 12 21 28 13 21 -10z m7076 -110 c1 -13 1 -27 0
-32 -1 -4 3 -14 10 -22 12 -14 6 -44 -9 -44 -12 0 -42 55 -42 77 0 19 18 43
32 43 4 0 9 -10 9 -22z m-155 -82 c12 -47 -20 -64 -37 -19 -7 20 -6 28 3 35
21 13 27 10 34 -16z m17569 4 c3 -6 -1 -7 -9 -4 -18 7 -21 14 -7 14 6 0 13 -4
16 -10z m-18495 -28 c0 -13 -12 -22 -22 -16 -10 6 -1 24 13 24 5 0 9 -4 9 -8z
m-5410 -34 c-1 -17 -28 -53 -35 -46 -8 7 16 58 27 58 4 0 8 -6 8 -12z m6528 0
c-6 -18 -28 -21 -28 -4 0 9 7 16 16 16 9 0 14 -5 12 -12z m-1118 -13 c0 -8 -4
-15 -10 -15 -5 0 -10 7 -10 15 0 8 5 15 10 15 6 0 10 -7 10 -15z m-170 -26
c-7 -11 -14 -19 -16 -16 -7 7 7 37 17 37 6 0 5 -9 -1 -21z m-8149 -34 c-1 -15
-24 -12 -29 3 -3 9 2 13 12 10 10 -1 17 -7 17 -13z m26444 -53 c-6 -7 -34 29
-34 43 0 6 9 -1 20 -14 11 -13 17 -26 14 -29z m-27877 -80 c2 -7 -2 -10 -12
-6 -9 3 -16 11 -16 16 0 13 23 5 28 -10z m9512 9 c0 -6 -4 -13 -10 -16 -5 -3
-10 1 -10 9 0 9 5 16 10 16 6 0 10 -4 10 -9z m-2740 -316 c0 -8 -4 -15 -10
-15 -5 0 -7 7 -4 15 4 8 8 15 10 15 2 0 4 -7 4 -15z m2665 -275 c-3 -5 -15
-10 -26 -10 -11 0 -17 5 -14 10 3 6 15 10 26 10 11 0 17 -4 14 -10z m-173
-1940 c4 -46 -4 -51 -20 -15 -16 35 -15 55 2 55 9 0 15 -14 18 -40z m19439
-13 c-10 -9 -11 -8 -5 6 3 10 9 15 12 12 3 -3 0 -11 -7 -18z m-19410 -50 c-1
-12 -15 -9 -19 4 -3 6 1 10 8 8 6 -3 11 -8 11 -12z m18669 -227 c0 -5 -5 -10
-11 -10 -5 0 -7 5 -4 10 3 6 8 10 11 10 2 0 4 -4 4 -10z m-302 -105 c-3 -3 -9
2 -12 12 -6 14 -5 15 5 6 7 -7 10 -15 7 -18z m-703 -25 c-3 -5 -10 -10 -16
-10 -5 0 -9 5 -9 10 0 6 7 10 16 10 8 0 12 -4 9 -10z m-7541 -2882 c-4 -29 -1
-53 10 -73 9 -16 16 -35 16 -41 0 -7 7 -25 15 -40 21 -40 19 -45 -25 -79 -21
-16 -43 -40 -49 -53 -10 -22 -12 -22 -36 -6 -15 9 -24 23 -21 30 3 8 1 14 -4
14 -9 0 -80 102 -80 115 0 3 9 5 19 5 11 0 22 6 24 13 3 7 6 5 6 -5 1 -10 4
-18 9 -18 7 0 45 69 56 103 3 9 10 17 16 17 5 0 10 7 10 15 0 17 20 44 32 45
4 0 5 -19 2 -42z m-484 -263 c0 -24 5 -47 10 -50 7 -4 7 -13 0 -26 -9 -15 -7
-19 5 -19 8 0 15 -5 15 -11 0 -21 -44 17 -51 43 -9 33 1 119 12 112 5 -3 9
-25 9 -49z m300 -17 c0 -22 -28 -80 -44 -90 -16 -10 -46 22 -46 49 0 33 42 73
69 66 12 -3 21 -13 21 -25z m-844 -79 c3 -6 7 -44 8 -84 2 -68 1 -74 -20 -78
-20 -3 -54 13 -54 27 0 3 -9 15 -20 26 -11 11 -20 28 -20 38 0 19 29 51 65 70
26 14 32 15 41 1z m210 -80 c21 -26 23 -68 4 -74 -10 -3 -21 -16 -25 -28 -4
-13 -8 -17 -12 -9 -14 35 -63 -25 -63 -79 0 -10 -4 -20 -8 -23 -12 -7 -82 15
-82 26 0 5 -11 6 -25 2 -14 -3 -25 -3 -25 0 0 16 34 56 46 56 8 0 14 7 14 15
0 13 30 25 103 40 23 5 26 8 17 25 -11 21 -7 110 5 131 6 8 13 -1 24 -28 9
-22 21 -47 27 -54z m264 36 c17 -20 -2 -90 -27 -99 -30 -12 -53 3 -53 35 0 60
50 100 80 64z m-1040 -259 c0 -11 -19 -15 -25 -6 -3 5 1 10 9 10 9 0 16 -2 16
-4z m-126 -45 c3 -4 -6 -19 -20 -32 -21 -20 -26 -21 -34 -9 -7 11 -3 20 13 32
25 20 34 22 41 9z m-194 -39 c0 -10 -5 -23 -12 -30 -17 -17 -3 -26 20 -13 30
16 72 13 78 -4 4 -8 15 -15 25 -15 11 0 16 -5 13 -13 -2 -7 8 -17 26 -24 24
-9 30 -9 30 2 0 8 7 11 19 8 20 -5 131 70 131 88 0 17 25 9 39 -13 13 -20 16
-39 12 -79 -1 -6 -15 -1 -31 11 -17 12 -29 18 -28 13 2 -5 -16 -26 -39 -47
-24 -21 -43 -45 -43 -53 0 -9 -8 -13 -22 -11 -15 2 -22 9 -22 21 2 19 -11 23
-21 7 -3 -5 -14 -10 -23 -10 -15 0 -15 2 -2 10 11 8 6 10 -22 8 -20 -1 -35 -5
-32 -10 5 -7 -35 -34 -106 -74 -19 -10 -37 -22 -38 -27 -2 -4 -8 -5 -13 -1 -5
3 -9 -4 -9 -15 0 -12 -6 -21 -14 -21 -8 0 -21 -3 -30 -6 -10 -4 -20 5 -31 27
-21 40 -7 72 39 89 55 20 61 26 64 61 5 62 23 139 33 139 5 0 9 -8 9 -18z
m-647 -416 c6 -15 -16 -62 -39 -86 -13 -13 -17 -12 -34 10 -24 31 -25 48 -3
72 19 21 69 24 76 4z"/>
<path d="M34320 23160 c0 -5 9 -10 21 -10 11 0 17 5 14 10 -3 6 -13 10 -21 10
-8 0 -14 -4 -14 -10z"/>
<path d="M26375 17588 c-30 -24 -32 -41 -5 -68 25 -25 72 -26 93 -2 22 24 21
45 0 64 -30 26 -61 28 -88 6z"/>
<path d="M26496 17379 c-33 -26 -33 -60 -1 -95 21 -23 30 -26 61 -21 47 8 74
33 74 68 0 34 -41 69 -80 69 -15 0 -39 -9 -54 -21z"/>
<path d="M25878 17433 c-30 -34 -30 -59 -3 -89 36 -39 76 -64 101 -64 32 0 75
50 67 80 -17 71 -125 118 -165 73z"/>
<path d="M42231 16024 c-20 -34 -23 -35 -35 -19 -8 12 -15 14 -20 7 -3 -6 -2
-13 4 -17 5 -3 10 -25 11 -48 2 -76 11 -92 49 -92 30 0 35 4 37 25 1 14 5 49
9 78 5 37 3 60 -6 77 -18 33 -24 32 -49 -11z"/>
<path d="M42363 15949 c-18 -18 -16 -49 2 -49 8 0 15 6 16 13 0 6 4 3 8 -7 7
-17 8 -17 14 -3 3 9 -2 25 -11 37 -14 17 -19 19 -29 9z"/>
<path d="M41912 15807 c-18 -21 23 -65 54 -59 28 5 30 19 8 50 -17 25 -46 29
-62 9z"/>
<path d="M24721 8818 c0 -28 2 -30 9 -13 12 28 12 45 0 45 -5 0 -10 -15 -9
-32z"/>
</g>
</svg>
